<svg width="111" height="37" viewBox="0 0 111 37" fill="none" xmlns="http://www.w3.org/2000/svg">
<path d="M5.36858 7.036C6.06458 4.948 7.16858 3.904 8.68058 3.904C9.88058 3.904 10.7206 4.624 11.2006 6.064C11.6326 7.336 12.1966 10.456 12.8926 15.424C13.6366 15.328 14.0566 15.28 14.1526 15.28C14.8726 15.28 15.2326 15.64 15.2326 16.36C15.2326 16.648 15.1246 16.888 14.9086 17.08C14.6926 17.272 14.4406 17.392 14.1526 17.44L13.2166 17.548C13.4566 19.54 13.5766 21.028 13.5766 22.012C13.5766 22.996 13.3246 23.74 12.8206 24.244C12.3166 24.748 11.7286 25 11.0566 25C10.4086 25 9.78458 24.724 9.18458 24.172C8.60858 23.62 8.15258 22.984 7.81658 22.264C7.09658 20.704 6.73658 19.54 6.73658 18.772C6.73658 17.308 8.06858 16.3 10.7326 15.748C9.98858 10.66 9.49658 7.78 9.25658 7.108C9.04058 6.412 8.84858 6.064 8.68058 6.064C8.20058 6.064 7.78058 6.604 7.42058 7.684C6.31658 10.996 5.58458 13.372 5.22458 14.812C4.86458 16.252 4.48058 17.824 4.07258 19.528C3.66458 21.232 3.35258 22.492 3.13658 23.308C2.94458 24.1 2.76458 24.58 2.59658 24.748C2.45258 24.916 2.22458 25 1.91258 25C1.19258 25 0.832578 24.64 0.832578 23.92L0.904578 23.488C1.21658 22.24 1.57658 20.764 1.98458 19.06C2.41658 17.356 2.72858 16.096 2.92058 15.28C3.49658 13.024 4.31258 10.276 5.36858 7.036ZM11.0566 17.908C9.61658 18.22 8.89658 18.568 8.89658 18.952C8.89658 19.384 9.17258 20.14 9.72458 21.22C10.3006 22.3 10.7446 22.84 11.0566 22.84C11.2966 22.84 11.4166 22.444 11.4166 21.652C11.4166 20.836 11.2966 19.588 11.0566 17.908ZM32.8895 22.048C32.8895 22.048 33.2735 21.952 34.0415 21.76C34.7615 21.76 35.1215 22.12 35.1215 22.84C35.1215 23.368 34.7615 23.752 34.0415 23.992C33.6095 24.136 33.1775 24.208 32.7455 24.208C32.3375 24.208 31.9415 24.112 31.5575 23.92C31.1735 23.728 30.8735 23.44 30.6575 23.056C30.2975 22.432 30.0335 21.76 29.8655 21.04L29.7215 20.428C29.3135 21.124 28.3175 21.94 26.7335 22.876C25.1735 23.812 23.5055 24.28 21.7295 24.28C20.7695 24.28 19.9295 23.92 19.2095 23.2C18.4895 22.48 18.1295 21.64 18.1295 20.68C18.1295 18.352 19.0895 16.336 21.0095 14.632C22.9295 12.904 24.8735 12.04 26.8415 12.04C27.9215 12.04 28.8455 12.244 29.6135 12.652C30.4055 13.036 30.8015 13.432 30.8015 13.84C30.8015 14.56 30.4415 14.92 29.7215 14.92C29.5775 14.92 29.2295 14.8 28.6775 14.56C28.1255 14.32 27.5135 14.2 26.8415 14.2C25.5455 14.2 24.1295 14.836 22.5935 16.108C21.0575 17.356 20.2895 18.88 20.2895 20.68C20.2895 21.04 20.4335 21.376 20.7215 21.688C21.0335 21.976 21.3695 22.12 21.7295 22.12C23.1455 22.12 24.4655 21.748 25.6895 21.004C26.9135 20.236 27.6935 19.612 28.0295 19.132C28.3655 18.628 28.6415 18.172 28.8575 17.764C29.0735 17.356 29.2295 17.092 29.3255 16.972C29.4455 16.828 29.6855 16.756 30.0455 16.756C30.4055 16.756 30.6815 16.888 30.8735 17.152C31.0655 17.416 31.2455 17.836 31.4135 18.412C31.5815 18.964 31.7495 19.588 31.9175 20.284C32.0855 20.98 32.2295 21.448 32.3495 21.688C32.4935 21.928 32.6735 22.048 32.8895 22.048ZM48.3863 15.28C48.3863 18.304 48.2423 21.544 47.9543 25C47.6903 28.48 47.3543 31.144 46.9463 32.992C46.4903 35.152 45.4103 36.232 43.7063 36.232C40.5863 36.232 39.0263 34.144 39.0263 29.968C39.0263 28.816 39.3383 27.7 39.9623 26.62C40.6103 25.54 41.3303 25 42.1223 25C42.9383 25 43.3463 25.36 43.3463 26.08C43.3463 26.248 43.1783 26.452 42.8423 26.692C41.7383 27.46 41.1863 28.528 41.1863 29.896C41.1863 31.288 41.3543 32.332 41.6903 33.028C42.0503 33.724 42.7223 34.072 43.7063 34.072C44.2823 34.072 44.6783 33.52 44.8943 32.416C45.3503 30.28 45.7223 26.896 46.0103 22.264C46.1063 20.8 46.1423 19.912 46.1183 19.6C45.6143 20.32 45.2423 20.776 45.0023 20.968C44.7863 21.136 44.5583 21.316 44.3183 21.508C44.1023 21.676 43.8863 21.82 43.6703 21.94C43.4783 22.036 43.2263 22.156 42.9143 22.3C42.6263 22.42 42.3263 22.516 42.0143 22.588C41.2943 22.756 40.5383 22.84 39.7463 22.84C38.4743 22.84 37.5623 22.12 37.0103 20.68C36.2663 18.784 35.7503 16.384 35.4623 13.48C35.4383 13.336 35.4263 13.144 35.4263 12.904C35.4263 12.328 35.7623 12.04 36.4343 12.04C37.1303 12.04 37.5143 12.4 37.5863 13.12C37.7543 14.704 38.0303 16.36 38.4143 18.088C38.8223 19.816 39.2663 20.68 39.7463 20.68C41.3063 20.68 42.5183 20.284 43.3823 19.492C44.2463 18.7 45.1943 17.296 46.2263 15.28C46.5143 14.56 46.8743 14.2 47.3063 14.2C48.0263 14.2 48.3863 14.56 48.3863 15.28ZM54.1618 15.28C54.1618 14.968 54.2578 14.716 54.4498 14.524C54.6418 14.308 54.9058 14.2 55.2418 14.2C55.9618 14.2 56.3218 14.56 56.3218 15.28C56.3218 17.128 56.7538 18.856 57.6178 20.464C58.5058 22.048 59.5138 22.84 60.6418 22.84C61.1458 22.84 62.2498 19.984 63.9538 14.272C64.1698 13.552 64.6258 13.192 65.3218 13.192C65.6818 13.192 65.9458 13.264 66.1138 13.408C66.2818 13.552 66.3778 13.744 66.4018 13.984C66.4498 14.224 66.5218 14.68 66.6178 15.352C66.7138 16.024 66.8338 16.696 66.9778 17.368C67.0978 18.04 67.2538 18.76 67.4458 19.528C67.8778 21.256 68.3698 22.12 68.9218 22.12C69.3778 22.12 69.7858 22.06 70.1458 21.94C70.5058 21.82 70.7218 21.76 70.7938 21.76C71.5138 21.76 71.8738 22.12 71.8738 22.84C71.8738 23.368 71.5498 23.74 70.9018 23.956C70.2538 24.172 69.6538 24.28 69.1018 24.28C68.5498 24.28 68.0938 24.196 67.7338 24.028C67.3738 23.836 67.0738 23.608 66.8338 23.344C66.6418 23.104 66.4258 22.744 66.1858 22.264C65.9218 21.736 65.6698 21.124 65.4298 20.428C65.2138 19.732 65.0938 19.324 65.0698 19.204C65.0458 19.084 65.0218 18.964 64.9978 18.844C64.9978 18.7 64.9858 18.592 64.9618 18.52C64.9138 18.616 64.8658 18.76 64.8178 18.952L64.6738 19.384C64.6258 19.48 64.5778 19.588 64.5298 19.708C64.5058 19.804 64.3858 20.176 64.1698 20.824C63.9538 21.448 63.7618 21.952 63.5938 22.336C63.4258 22.672 63.1978 23.08 62.9098 23.56C62.3338 24.52 61.5418 25 60.5338 25C59.5498 25 58.5178 24.52 57.4378 23.56C56.3578 22.6 55.5178 21.316 54.9178 19.708C54.4618 20.452 53.9098 21.136 53.2618 21.76C52.1818 22.816 51.3898 23.44 50.8858 23.632C50.4058 23.824 50.0338 23.92 49.7698 23.92C49.0498 23.92 48.6898 23.56 48.6898 22.84C48.6898 22.384 49.0498 22.012 49.7698 21.724C50.4898 21.412 51.4018 20.644 52.5058 19.42C53.6098 18.196 54.1618 16.816 54.1618 15.28ZM70.6526 21.724C71.9486 21.196 72.9686 20.644 73.7126 20.068C74.4566 19.468 75.3686 18.604 76.4486 17.476C77.5286 16.348 78.2366 15.64 78.5726 15.352C79.7246 14.344 80.9486 13.84 82.2446 13.84C83.0366 13.84 83.9006 14.032 84.8366 14.416C85.7966 14.8 86.6846 15.484 87.5006 16.468C88.3166 17.452 88.7246 18.628 88.7246 19.996C88.7246 21.34 87.9326 22.516 86.3486 23.524C84.7646 24.508 82.6766 25 80.0846 25C79.3646 25 79.0046 24.64 79.0046 23.92C79.0046 23.2 79.3646 22.84 80.0846 22.84C82.0526 22.84 83.6246 22.528 84.8006 21.904C85.9766 21.256 86.5646 20.608 86.5646 19.96C86.5646 19.072 86.2766 18.304 85.7006 17.656C84.6926 16.552 83.5406 16 82.2446 16C81.5006 16 80.7686 16.312 80.0486 16.936C79.8326 17.128 79.1366 17.824 77.9606 19.024C76.8086 20.224 75.8486 21.124 75.0806 21.724C74.3366 22.324 73.4726 22.84 72.4886 23.272C71.5286 23.704 70.9166 23.92 70.6526 23.92C69.9326 23.92 69.5726 23.56 69.5726 22.84C69.5726 22.384 69.9326 22.012 70.6526 21.724ZM110.758 22.84C110.758 23.8 109.654 24.28 107.446 24.28C106.414 24.28 105.61 24.052 105.034 23.596C104.482 23.14 104.206 22.348 104.206 21.22C104.206 20.092 104.11 19.12 103.918 18.304C103.726 17.488 103.462 17.08 103.126 17.08C102.118 17.08 101.158 18.016 100.246 19.888C99.862 20.656 99.454 21.436 99.022 22.228C98.59 22.996 98.014 23.656 97.294 24.208C96.598 24.736 95.782 25 94.846 25C92.686 25 91.606 22.912 91.606 18.736C91.606 15.736 91.93 12.82 92.578 9.988C93.25 7.156 94.174 4.828 95.35 3.004C96.55 1.156 97.81 0.231999 99.13 0.231999C100.45 0.231999 101.446 0.711999 102.118 1.672C102.79 2.632 103.126 3.88 103.126 5.416C103.126 6.928 102.694 8.428 101.83 9.916C100.99 11.38 99.958 12.568 98.734 13.48C98.134 13.96 97.678 14.2 97.366 14.2C96.646 14.2 96.286 13.84 96.286 13.12C96.286 12.832 96.694 12.376 97.51 11.752C98.326 11.128 99.106 10.24 99.85 9.088C100.594 7.912 100.966 6.544 100.966 4.984C100.966 4.336 100.822 3.748 100.534 3.22C100.246 2.668 99.79 2.392 99.166 2.392C98.446 2.392 97.666 3.148 96.826 4.66C96.01 6.148 95.29 8.188 94.666 10.78C94.066 13.372 93.766 16.036 93.766 18.772C93.766 21.484 94.126 22.84 94.846 22.84C95.854 22.84 96.814 21.904 97.726 20.032C98.11 19.264 98.518 18.496 98.95 17.728C99.382 16.936 99.946 16.276 100.642 15.748C101.362 15.196 102.19 14.92 103.126 14.92C105.286 14.92 106.366 16.96 106.366 21.04C106.366 21.76 106.714 22.12 107.41 22.12C108.13 22.12 108.67 22.06 109.03 21.94C109.39 21.82 109.606 21.76 109.678 21.76C110.398 21.76 110.758 22.12 110.758 22.84Z" fill="white"/>
</svg>
