<svg width="60" height="43" viewBox="0 0 60 43" fill="none" xmlns="http://www.w3.org/2000/svg">
<path fill-rule="evenodd" clip-rule="evenodd" d="M12.86 0.429443C9.5319 0.429443 7.07103 3.04571 7.18277 5.88019C7.28723 8.60774 7.15119 12.1361 6.16247 15.0142C5.16646 17.8989 3.49024 19.7274 0.75 19.9631V22.6143C3.49024 22.8477 5.16889 24.6763 6.16004 27.5631C7.15119 30.4413 7.28723 33.9696 7.18034 36.695C7.07102 39.5316 9.5319 42.1479 12.86 42.1479H46.9479C50.276 42.1479 52.7369 39.5316 52.6252 36.695C52.5207 33.9696 52.6567 30.4413 53.6455 27.5631C54.639 24.6763 56.3128 22.8499 59.0531 22.6143V19.9631C56.3128 19.7274 54.639 17.8989 53.6455 15.0142C52.6567 12.1339 52.5207 8.60556 52.6252 5.88019C52.7369 3.04353 50.2736 0.429443 46.9479 0.429443H12.86ZM40.2746 26.1099C40.2746 30.0158 37.0315 32.3833 31.6506 32.3833H22.4898C22.2275 32.3833 21.976 32.2897 21.7906 32.1232C21.6052 31.9566 21.501 31.7307 21.501 31.4952V11.08C21.5017 10.8448 21.6061 10.6195 21.7915 10.4534C21.9768 10.2873 22.228 10.1941 22.4898 10.1941H31.5996C36.0865 10.1941 39.0333 12.3761 39.0333 15.7299C39.0333 18.0822 37.051 20.1878 34.5269 20.5588V20.681C37.9644 21.0192 40.2771 23.1576 40.2771 26.1099H40.2746ZM30.6546 13.0067H25.4316V19.6358H29.8311C33.2321 19.6358 35.1075 18.4051 35.1075 16.2056C35.1075 14.1458 33.4945 13.0067 30.6546 13.0067ZM25.4316 22.2651V29.5684H30.849C34.3884 29.5684 36.2663 28.2919 36.2663 25.8939C36.2663 23.4936 34.3374 22.2651 30.6206 22.2651H25.4316V22.2651Z" fill="#9747FF"/>
</svg>
