<svg width="74" height="67" viewBox="0 0 74 67" fill="none" xmlns="http://www.w3.org/2000/svg">
<path d="M61.9297 17.0914C61.6821 16.797 61.4177 16.5143 61.1373 16.2445C61.4193 15.5709 61.6335 14.876 61.7773 14.1682C62.2019 11.5788 61.8331 8.93473 60.7106 6.51872C60.7106 6.51872 57.2972 5.56253 49.4647 10.2888C46.1395 9.46579 42.7048 9.05221 39.2551 9.05945C35.7955 9.05401 32.351 9.46754 29.0149 10.2888C21.1825 5.50789 17.7691 6.51872 17.7691 6.51872C16.66 8.90915 16.2914 11.5237 16.7024 14.0863C16.847 14.8235 17.0716 15.5464 17.3729 16.2445C17.0986 16.5177 16.8243 16.8182 16.5805 17.0914C14.3063 19.6486 13.0991 22.8371 13.1671 26.1069C13.1599 26.8824 13.2006 27.6576 13.289 28.4291C14.2643 40.5317 23.2549 43.3456 31.8188 44.2198C30.6067 45.2302 29.7848 46.5602 29.4721 48.0172C29.1888 48.9889 29.0555 49.9909 29.0759 50.9951V54.5739C25.6656 54.8471 22.1668 54.4018 21.0819 51.6753C19.9172 49.0657 17.9857 46.7876 15.4925 45.0831C15.3103 44.9947 15.1369 44.8923 14.9744 44.7771C14.7554 44.2613 14.3675 43.817 13.8617 43.5025C13.3558 43.188 12.7557 43.0181 12.14 43.015H12.1248C11.3191 43.015 10.5463 43.301 9.97515 43.8103C9.40404 44.3197 9.08117 45.0111 9.07714 45.7333C9.068 47.9517 11.5457 49.3859 12.5606 49.8722C13.7463 50.9432 14.7001 52.2021 15.3736 53.585C16.483 56.3798 19.7287 60.628 28.9845 60.0761L28.9906 60.3438L29.0027 61.076C29.0027 61.8006 29.3238 62.4955 29.8954 63.0078C30.4669 63.5201 31.2421 63.808 32.0504 63.808H46.4171C47.2254 63.808 48.0006 63.5201 48.5721 63.0078C49.1436 62.4955 49.4647 61.8006 49.4647 61.076C49.4647 61.076 49.4891 52.443 49.4891 50.9951C49.5094 49.9909 49.3761 48.989 49.0929 48.0172L49.0868 48.0008L49.099 48.0172C49.0716 47.9216 49.032 47.8451 49.0015 47.7522C48.6619 46.3987 47.8761 45.1679 46.7462 44.2198L46.7828 44.2772L46.7218 44.2225C55.2858 43.3483 64.2154 40.4797 65.1907 28.4318C65.2791 27.6603 65.3198 26.8851 65.3126 26.1096C65.3667 22.8463 64.1728 19.6648 61.9297 17.0941V17.0914Z" fill="white"/>
</svg>
