<svg width="181" height="52" viewBox="0 0 181 52" fill="none" xmlns="http://www.w3.org/2000/svg">
<g clip-path="url(#clip0_9_183)" filter="url(#filter0_d_9_183)">
<rect width="172.267" height="43.0176" transform="translate(4.23045 0.917969)" fill="white"/>
<path fill-rule="evenodd" clip-rule="evenodd" d="M4.23173 19.7222C4.38525 13.3373 9.54668 8.21033 15.8841 8.21033C22.2311 8.21033 27.3829 13.3396 27.5364 19.7222C27.5865 21.8064 25.9586 23.5371 23.9003 23.5879C21.8421 23.6386 20.1329 21.9901 20.0827 19.906C20.0275 17.6067 18.1708 15.76 15.8841 15.76C13.6164 15.76 11.7632 17.5865 11.6865 19.8642C11.6989 22.9181 12.8429 25.9226 14.1425 28.3109C14.7808 29.4839 15.4199 30.4409 15.8937 31.0971C16.1294 31.4237 16.3214 31.6716 16.4475 31.83C16.5105 31.9092 16.5569 31.9657 16.5838 31.9981C16.5973 32.0143 16.6059 32.0246 16.6093 32.0286L16.608 32.027L16.6063 32.025C16.6076 32.0266 16.6089 32.028 16.6102 32.0296C17.9578 33.5995 17.7972 35.9786 16.2495 37.3482C14.6992 38.72 12.3441 38.5595 10.9893 36.9897L13.7964 34.5057C10.9893 36.9897 10.9886 36.9888 10.9879 36.9879L10.9827 36.982L10.9739 36.9717C10.9673 36.964 10.9593 36.9546 10.95 36.9436C10.9313 36.9215 10.9071 36.8927 10.8778 36.8576C10.8193 36.7871 10.7402 36.6904 10.6436 36.5691C10.4506 36.3267 10.1863 35.9842 9.87483 35.5528C9.25396 34.6929 8.4336 33.4634 7.61243 31.9543C6.0002 28.9916 4.23062 24.6701 4.23062 19.8141V19.7682L4.23173 19.7222ZM16.6055 32.0241L16.606 32.0247L16.6063 32.025C16.606 32.0247 16.6057 32.0244 16.6055 32.0241Z" fill="black"/>
<path fill-rule="evenodd" clip-rule="evenodd" d="M27.71 19.7249V20.2242C27.71 22.2835 26.041 23.953 23.9822 23.953C21.9233 23.953 20.2543 22.2835 20.2543 20.2242V19.627L20.2554 19.5817C20.4089 13.2747 25.5704 8.21033 31.9077 8.21033C38.245 8.21033 43.4065 13.2747 43.56 19.5817L43.5611 19.627V19.6724C43.5611 23.6301 42.3253 27.1795 41.1876 29.6352C40.609 30.8844 40.0295 31.9062 39.5885 32.6253C39.3672 32.9861 39.1788 33.2739 39.0398 33.4795C38.9702 33.5824 38.9129 33.665 38.8697 33.7261C38.8482 33.7567 38.8302 33.7819 38.8161 33.8017C38.809 33.8116 38.8028 33.8201 38.7976 33.8271L38.7907 33.8368L38.7864 33.8427C38.7857 33.8435 38.7851 33.8443 35.9015 31.7326L38.7851 33.8443C37.5689 35.5059 35.2362 35.8667 33.5749 34.6501C31.917 33.4359 31.5544 31.1094 32.7623 29.4485C32.7642 29.446 32.7687 29.4396 32.7758 29.4295C32.7921 29.4064 32.8219 29.3636 32.8632 29.3025C32.9461 29.1799 33.0745 28.9847 33.2335 28.7255C33.5529 28.2047 33.9875 27.4396 34.4228 26.4999C35.3071 24.5911 36.0948 22.1754 36.1052 19.7218C36.0285 17.472 34.1753 15.6678 31.9077 15.6678C29.639 15.6678 27.7852 17.4736 27.71 19.7249Z" fill="black"/>
<path d="M35.7919 35.8559C37.9372 35.8559 39.6763 34.1186 39.6763 31.9758C39.6763 29.8328 37.9372 28.0957 35.7919 28.0957C33.6465 28.0957 31.9074 29.8328 31.9074 31.9758C31.9074 34.1186 33.6465 35.8559 35.7919 35.8559Z" fill="#B7E803"/>
<path d="M74.7161 14.2657C76.8244 14.2657 78.5242 14.9399 79.7935 16.2881C81.074 17.6364 81.7142 19.4235 81.7142 21.6598V32.6174H76.1841V22.12C76.1841 21.2105 75.9523 20.5042 75.4998 19.9798C75.0473 19.4556 74.385 19.1987 73.524 19.1987C72.6188 19.1987 71.9124 19.4984 71.4047 20.0869C70.8969 20.6861 70.6541 21.4993 70.6541 22.5481V32.6174H65.1241V22.12C65.1241 21.2105 64.8923 20.5042 64.4397 19.9798C63.9872 19.4556 63.3249 19.1987 62.4639 19.1987C61.5589 19.1987 60.8523 19.4984 60.3446 20.0869C59.8368 20.6861 59.594 21.4993 59.594 22.5481V32.6174H54.0861V14.7579H59.6161V16.3952C60.6206 14.972 62.2653 14.255 64.5501 14.255C66.6914 14.255 68.292 15.0362 69.3737 16.6092C70.4996 15.0469 72.2767 14.2657 74.7161 14.2657Z" fill="black"/>
<path d="M101.262 30.3809C99.3748 32.2 97.068 33.1097 94.3415 33.1097C91.6151 33.1097 89.3082 32.2 87.4207 30.3809C85.5331 28.5618 84.5839 26.3254 84.5839 23.6823C84.5839 21.0393 85.5331 18.8135 87.4207 16.9837C89.3082 15.1646 91.6151 14.255 94.3415 14.255C97.068 14.255 99.3748 15.1646 101.262 16.9837C103.15 18.8028 104.099 21.0393 104.099 23.6823C104.099 26.3361 103.161 28.5618 101.262 30.3809ZM91.3171 26.7213C92.1229 27.5025 93.1384 27.8984 94.3415 27.8984C95.5446 27.8984 96.5492 27.5025 97.3659 26.7213C98.1827 25.9402 98.5802 24.9235 98.5802 23.6823C98.5802 22.441 98.1717 21.4352 97.3659 20.6433C96.5601 19.8514 95.5446 19.4663 94.3415 19.4663C93.1384 19.4663 92.1339 19.8621 91.3171 20.6433C90.5003 21.4245 90.103 22.441 90.103 23.6823C90.103 24.9235 90.5113 25.9402 91.3171 26.7213Z" fill="black"/>
<path d="M112.753 17.9359C113.095 16.7909 113.791 15.9135 114.839 15.3142C115.888 14.7043 117.036 14.4047 118.283 14.4047V20.4719C116.936 20.258 115.678 20.4826 114.508 21.1354C113.338 21.7882 112.764 22.9224 112.764 24.5489V32.6172H107.234V14.7578H112.764V17.9359H112.753Z" fill="black"/>
<path d="M133.68 14.7579H139.211V32.6067H133.68V30.9267C132.378 32.382 130.546 33.1097 128.195 33.1097C125.767 33.1097 123.691 32.2 121.97 30.3809C120.248 28.5618 119.387 26.3254 119.387 23.6823C119.387 21.0393 120.248 18.8135 121.97 16.9837C123.691 15.1646 125.767 14.255 128.195 14.255C130.557 14.255 132.378 14.9827 133.68 16.4379V14.7579ZM126.13 26.8711C126.937 27.6523 127.997 28.0482 129.299 28.0482C130.602 28.0482 131.661 27.6523 132.467 26.8711C133.273 26.09 133.68 25.0306 133.68 23.693C133.68 22.3554 133.273 21.2961 132.467 20.5149C131.661 19.7338 130.602 19.3379 129.299 19.3379C127.997 19.3379 126.937 19.7338 126.13 20.5149C125.325 21.2961 124.917 22.3554 124.917 23.693C124.906 25.02 125.314 26.0793 126.13 26.8711Z" fill="black"/>
<path d="M143.251 32.6174V6.55042H148.781V32.6174H143.251Z" fill="black"/>
<path d="M157.931 12.2432C157.28 12.8745 156.497 13.1848 155.591 13.1848C154.686 13.1848 153.903 12.8745 153.251 12.2432C152.6 11.6118 152.28 10.8521 152.28 9.97461C152.28 9.09715 152.6 8.33741 153.251 7.70606C153.903 7.07472 154.686 6.7644 155.591 6.7644C156.497 6.7644 157.28 7.08543 157.931 7.70606C158.583 8.33741 158.903 9.09715 158.903 9.97461C158.903 10.8628 158.583 11.6118 157.931 12.2432ZM152.832 32.6173V14.7578H158.362V32.6066H152.832V32.6173Z" fill="black"/>
<path d="M167.446 19.98C167.446 20.3332 167.755 20.6328 168.384 20.8574C169.014 21.0821 169.764 21.3069 170.647 21.5316C171.531 21.7563 172.413 22.0453 173.296 22.409C174.18 22.7622 174.93 23.3507 175.559 24.1746C176.188 24.9986 176.498 26.0259 176.498 27.2672C176.498 29.1934 175.758 30.6486 174.29 31.6438C172.821 32.6283 171.001 33.1204 168.837 33.1204C164.951 33.1204 162.313 31.708 160.923 28.8723L165.713 26.2292C166.199 27.631 167.247 28.3372 168.848 28.3372C170.172 28.3372 170.835 27.9734 170.835 27.2351C170.835 26.882 170.526 26.5823 169.896 26.3469C169.268 26.1115 168.517 25.876 167.634 25.6514C166.751 25.4267 165.868 25.127 164.984 24.7632C164.102 24.3994 163.351 23.8216 162.722 23.0297C162.092 22.2379 161.784 21.2748 161.784 20.1405C161.784 18.2786 162.479 16.8447 163.87 15.8174C165.26 14.7902 166.972 14.2872 169.003 14.2872C170.526 14.2872 171.917 14.619 173.164 15.2717C174.412 15.9244 175.426 16.8768 176.188 18.1074L171.475 20.5686C170.89 19.5199 170.062 18.9955 169.003 18.9955C167.965 18.9741 167.446 19.3058 167.446 19.98Z" fill="black"/>
</g>
<defs>
<filter id="filter0_d_9_183" x="0.230453" y="0.917969" width="180.267" height="51.0176" filterUnits="userSpaceOnUse" color-interpolation-filters="sRGB">
<feFlood flood-opacity="0" result="BackgroundImageFix"/>
<feColorMatrix in="SourceAlpha" type="matrix" values="0 0 0 0 0 0 0 0 0 0 0 0 0 0 0 0 0 0 127 0" result="hardAlpha"/>
<feOffset dy="4"/>
<feGaussianBlur stdDeviation="2"/>
<feComposite in2="hardAlpha" operator="out"/>
<feColorMatrix type="matrix" values="0 0 0 0 0 0 0 0 0 0 0 0 0 0 0 0 0 0 0.25 0"/>
<feBlend mode="normal" in2="BackgroundImageFix" result="effect1_dropShadow_9_183"/>
<feBlend mode="normal" in="SourceGraphic" in2="effect1_dropShadow_9_183" result="shape"/>
</filter>
<clipPath id="clip0_9_183">
<rect width="172.267" height="43.0176" fill="white" transform="translate(4.23045 0.917969)"/>
</clipPath>
</defs>
</svg>
