<svg width="60" height="54" viewBox="0 0 60 54" fill="none" xmlns="http://www.w3.org/2000/svg">
<path d="M44.028 50.4267C43.8118 50.5317 43.83 50.5651 44.0371 50.4684C44.1009 50.4445 44.1594 50.41 44.2096 50.3668C44.2096 50.3318 44.2096 50.3318 44.028 50.4267ZM44.464 50.2101C44.3604 50.2884 44.3604 50.2884 44.484 50.2368C44.5296 50.2172 44.5713 50.1907 44.6075 50.1584C44.6075 50.1135 44.5784 50.1234 44.464 50.2101ZM44.7474 50.0535C44.6438 50.1318 44.6438 50.1318 44.7673 50.0801C44.8132 50.0601 44.8549 50.033 44.8909 50.0001C44.8909 49.9585 44.8618 49.9668 44.7474 50.0535ZM45.0344 49.8985C44.9308 49.9768 44.9308 49.9768 45.0507 49.9235C45.1179 49.8901 45.1743 49.8551 45.1743 49.8452C45.1743 49.8035 45.1452 49.8118 45.0344 49.8985ZM45.4213 49.6635C45.2233 49.7852 45.1543 49.8635 45.3359 49.7768C45.4577 49.7085 45.6647 49.5585 45.6284 49.5585C45.5503 49.5852 45.4849 49.6302 45.4195 49.6635H45.4213ZM28.0491 0.442913C27.9165 0.451245 27.5187 0.484574 27.1699 0.511238C18.908 1.19782 11.1783 5.27732 6.27897 11.5615C3.57144 15.0082 1.8115 19.0038 1.14888 23.2084C0.914541 24.6749 0.885475 25.1082 0.885475 27.0963C0.885475 29.0827 0.914541 29.5093 1.14888 30.9758C2.73114 40.9929 10.4989 49.4019 21.028 52.5182C22.9227 53.0731 24.9082 53.4564 27.1699 53.6913C28.0491 53.778 31.8513 53.778 32.7305 53.6913C36.6399 53.2914 39.9406 52.4065 43.2069 50.8784C43.7083 50.6451 43.8027 50.5834 43.7355 50.5317C42.1421 48.5996 40.5623 46.6581 38.996 44.7075L34.3509 38.9532L28.5324 31.0458C26.5969 28.3982 24.6416 25.763 22.6665 23.1401C22.6466 23.1401 22.6211 26.6547 22.6102 30.9408C22.5902 38.4482 22.5902 38.7532 22.4867 38.9265C22.3874 39.1359 22.2095 39.3056 21.9853 39.4048C21.8055 39.4831 21.6438 39.4998 20.7845 39.4998H19.8018L19.5456 39.3531C19.3852 39.2587 19.2548 39.127 19.1678 38.9715L19.0442 38.7365L19.0533 28.2861L19.0733 17.8358L19.2531 17.6275C19.368 17.4994 19.5094 17.3935 19.6692 17.3158C19.9071 17.2108 20.0016 17.1942 20.9844 17.1942C22.1379 17.1942 22.3287 17.2358 22.632 17.5408C24.9891 20.7569 27.3259 23.9854 29.6423 27.2263C33.419 32.479 38.5745 39.6464 41.1087 43.1626L45.7174 49.5602L45.9445 49.4219C48.1594 48.0717 50.1665 46.4546 51.912 44.6141C55.5735 40.7697 57.9494 36.0387 58.7552 30.9875C58.9895 29.521 59.0186 29.086 59.0186 27.0996C59.0186 25.1115 58.9895 24.6866 58.7552 23.2201C57.1729 13.203 49.4051 4.79404 38.8761 1.67609C36.9083 1.10437 34.8829 0.715242 32.8304 0.51457C32.28 0.46291 28.5233 0.401251 28.051 0.446246L28.0491 0.442913ZM39.9424 16.5693C40.0776 16.6301 40.1981 16.7152 40.297 16.8193C40.3959 16.9235 40.4711 17.0447 40.5183 17.1758C40.5674 17.3158 40.5764 20.2138 40.5674 26.7413L40.5474 36.1135L38.7507 33.5805L36.9432 31.0458V24.2416C36.9432 19.8305 36.9632 17.3575 36.9886 17.2358C37.0776 16.9569 37.2815 16.7208 37.5572 16.5776C37.7825 16.4726 37.8697 16.4643 38.7689 16.4643C39.61 16.4643 39.7517 16.4726 39.9406 16.5693H39.9424Z" fill="white"/>
</svg>
