<svg width="1920" height="240" viewBox="0 0 1920 240" xmlns="http://www.w3.org/2000/svg"><path d="M1920,240C1600.8333333333333,250.33333333333334,276.1666666666667,249.16666666666666,0,240C-276.1666666666667,230.83333333333334,171.83333333333331,196.33333333333334,263,185C354.1666666666667,173.66666666666666,454.1666666666667,168.16666666666666,547,172C639.8333333333334,175.83333333333334,729.1666666666666,206.83333333333334,820,208C910.8333333333334,209.16666666666666,1002.1666666666666,186.16666666666666,1092,179C1181.8333333333333,171.83333333333334,1267.8333333333333,168.33333333333334,1359,165C1450.1666666666667,161.66666666666666,1546.3333333333333,156.83333333333334,1639,159C1731.6666666666667,161.16666666666666,1868.1666666666667,164.5,1915,178C1961.8333333333333,191.5,2239.1666666666665,229.66666666666666,1920,240C1600.8333333333333,250.33333333333334,276.1666666666667,249.16666666666666,0,240" fill="#225e7a"/></svg>