<svg width="68" height="45" viewBox="0 0 68 45" fill="none" xmlns="http://www.w3.org/2000/svg">
<g filter="url(#filter0_d_9_166)">
<path d="M53.3373 10.7947C51.1221 10.0231 49.1668 8.63573 47.6955 6.79168C46.074 4.73709 44.0093 3.08481 41.6594 1.96124C39.3094 0.837665 36.7365 0.272567 34.1374 0.309175C30.6412 0.0587636 27.18 1.14935 24.443 3.36374C21.7061 5.57814 19.8942 8.75386 19.3683 12.2585C20.4041 10.5057 21.9631 9.13036 23.8209 8.33051C25.6787 7.53066 27.7395 7.34749 29.7067 7.80738C31.9182 8.60143 33.8704 9.99688 35.3485 11.8403C36.9789 13.8784 39.0475 15.5137 41.397 16.6215C43.7464 17.7293 46.3148 18.2805 48.9066 18.2332C52.4028 18.4836 55.8641 17.393 58.601 15.1786C61.338 12.9642 63.1498 9.78847 63.6757 6.28384C62.6587 8.05763 61.1047 9.4537 59.2431 10.266C57.3815 11.0782 55.311 11.2636 53.3373 10.7947ZM14.9376 25.6716C17.1528 26.4432 19.1081 27.8306 20.5794 29.6746C22.2009 31.7292 24.2656 33.3815 26.6155 34.5051C28.9655 35.6286 31.5384 36.1937 34.1374 36.1571C37.6337 36.4076 41.0949 35.317 43.8319 33.1026C46.5688 30.8882 48.3807 27.7125 48.9066 24.2078C47.8707 25.9607 46.3118 27.336 44.454 28.1358C42.5962 28.9357 40.5354 29.1188 38.5682 28.6589C36.3567 27.8649 34.4045 26.4694 32.9264 24.626C31.2916 22.5929 29.2221 20.9613 26.8737 19.854C24.5253 18.7466 21.9591 18.1925 19.3683 18.2332C15.8721 17.9827 12.4108 19.0733 9.67387 21.2877C6.93692 23.5021 5.12509 26.6778 4.59918 30.1825C5.6162 28.4087 7.17022 27.0126 9.03179 26.2004C10.8934 25.3881 12.9639 25.2027 14.9376 25.6716Z" fill="#38BDF8"/>
</g>
<defs>
<filter id="filter0_d_9_166" x="0.599182" y="0.273926" width="67.0765" height="43.9185" filterUnits="userSpaceOnUse" color-interpolation-filters="sRGB">
<feFlood flood-opacity="0" result="BackgroundImageFix"/>
<feColorMatrix in="SourceAlpha" type="matrix" values="0 0 0 0 0 0 0 0 0 0 0 0 0 0 0 0 0 0 127 0" result="hardAlpha"/>
<feOffset dy="4"/>
<feGaussianBlur stdDeviation="2"/>
<feComposite in2="hardAlpha" operator="out"/>
<feColorMatrix type="matrix" values="0 0 0 0 0 0 0 0 0 0 0 0 0 0 0 0 0 0 0.25 0"/>
<feBlend mode="normal" in2="BackgroundImageFix" result="effect1_dropShadow_9_166"/>
<feBlend mode="normal" in="SourceGraphic" in2="effect1_dropShadow_9_166" result="shape"/>
</filter>
</defs>
</svg>
