<svg width="131" height="42" viewBox="0 0 131 42" fill="none" xmlns="http://www.w3.org/2000/svg">
<g clip-path="url(#clip0_9_161)" filter="url(#filter0_d_9_161)">
<rect width="122.643" height="32.2632" transform="translate(4.23045 0.933044)" fill="white"/>
<path d="M65.413 8.99216C60.6239 8.99216 57.171 12.6187 57.171 18.0584C57.171 23.4984 61.0577 27.1249 65.847 27.1249C68.7404 27.1249 71.2909 25.7952 72.8702 23.5537L69.5514 21.3275C68.6752 22.4406 67.3434 23.0903 65.8468 23.0903C63.769 23.0903 62.0034 21.8312 61.3483 19.8165H73.5033C73.5989 19.2521 73.6552 18.6678 73.6552 18.0534C73.6552 12.6187 70.2023 8.99188 65.413 8.99188V8.99216ZM61.3097 16.2956C61.8518 14.2858 63.3354 13.0214 65.4089 13.0214C67.4869 13.0214 68.9706 14.2858 69.5083 16.2956H61.3097ZM112.125 8.99188C107.335 8.99188 103.882 12.6187 103.882 18.0584C103.882 23.4984 107.769 27.1249 112.558 27.1249C115.452 27.1249 118.002 25.7952 119.582 23.5537L116.263 21.3275C115.387 22.4406 114.055 23.0903 112.558 23.0903C110.48 23.0903 108.715 21.8312 108.06 19.8165H120.214C120.31 19.2521 120.366 18.6678 120.366 18.0534C120.366 12.6187 116.913 8.99188 112.124 8.99188H112.125ZM108.025 16.2956C108.567 14.2858 110.051 13.0214 112.125 13.0214C114.202 13.0214 115.686 14.2858 116.224 16.2956H108.025ZM91.0939 18.0584C91.0939 21.0806 92.7946 23.0953 95.4319 23.0953C97.2191 23.0953 98.5596 22.1536 99.2494 20.6172L102.581 22.8486C101.201 25.5181 98.6161 27.1249 95.4319 27.1249C90.6386 27.1249 87.19 23.4981 87.19 18.0584C87.19 12.6187 90.6429 8.99216 95.4319 8.99216C98.6161 8.99216 101.197 10.5989 102.581 13.2684L99.2494 15.4999C98.5596 13.9635 97.2191 13.0217 95.4319 13.0217C92.799 13.0217 91.0939 15.0362 91.0939 18.0587V18.0584ZM126.873 3.45152V26.6212H122.969V3.45152H126.873ZM20.2593 0.933044L36.2879 33.1692H4.23045L20.2593 0.933044ZM60.3333 3.45152L48.3129 27.6286L36.2922 3.45152H40.7996L48.3129 18.5624L55.8262 3.45152H60.3333V3.45152ZM85.8883 9.49586V14.3765C85.4545 14.2305 84.9949 14.1298 84.5002 14.1298C81.9798 14.1298 80.1622 16.1446 80.1622 19.1667V26.6212H76.258V9.49586H80.1622V14.1295C80.1622 11.5707 82.726 9.49586 85.8883 9.49586V9.49586Z" fill="black"/>
</g>
<defs>
<filter id="filter0_d_9_161" x="0.230453" y="0.933044" width="130.643" height="40.2632" filterUnits="userSpaceOnUse" color-interpolation-filters="sRGB">
<feFlood flood-opacity="0" result="BackgroundImageFix"/>
<feColorMatrix in="SourceAlpha" type="matrix" values="0 0 0 0 0 0 0 0 0 0 0 0 0 0 0 0 0 0 127 0" result="hardAlpha"/>
<feOffset dy="4"/>
<feGaussianBlur stdDeviation="2"/>
<feComposite in2="hardAlpha" operator="out"/>
<feColorMatrix type="matrix" values="0 0 0 0 0 0 0 0 0 0 0 0 0 0 0 0 0 0 0.25 0"/>
<feBlend mode="normal" in2="BackgroundImageFix" result="effect1_dropShadow_9_161"/>
<feBlend mode="normal" in="SourceGraphic" in2="effect1_dropShadow_9_161" result="shape"/>
</filter>
<clipPath id="clip0_9_161">
<rect width="122.643" height="32.2632" fill="white" transform="translate(4.23045 0.933044)"/>
</clipPath>
</defs>
</svg>
