<svg width="3127" height="778" viewBox="0 0 3127 778" fill="none" xmlns="http://www.w3.org/2000/svg">
<g style="mix-blend-mode:lighten">
<path d="M0.999318 776.977C115.53 698.796 235.267 627.184 363.578 574.587C405.178 557.533 447.926 542.428 492.375 535.67C583.011 521.89 674.923 543.41 766.558 546.298C882.939 549.969 999.971 522.37 1102.98 468.233C1180.49 427.494 1267.69 368.404 1355.37 353.575C1435.02 340.104 1520.7 413.399 1591.24 441.997C1663.48 471.286 1744.29 477.524 1820.58 462.458C1860.56 454.563 1899.43 440.827 1935.28 421.427C1969.56 402.871 1999.42 368.338 2040.06 395.478C2053.49 404.45 2062.78 418.274 2074.32 429.575C2114.44 468.845 2184.6 471.915 2228 436.294" stroke="#225E7A" stroke-width="0.552088" stroke-miterlimit="10"/>
<path d="M6.05126 774.526C117.976 695.295 236.482 622.933 364.086 570.529C406.575 553.05 450.229 538.403 495.456 530.861C550.03 521.835 605.172 525.18 660.492 529.939C698.254 533.186 736.1 537.094 773.907 538.188C848.593 540.341 923.545 531.021 995.002 511.395C1036.78 499.917 1077.36 484.905 1116.04 466.51C1143.2 453.652 1171.45 438.756 1200.43 424.253C1241.18 403.914 1283.37 384.37 1326.25 371.854C1341.64 367.344 1357.12 363.739 1372.61 361.37C1436.65 351.62 1504.49 392.911 1565.51 423.287C1581.87 431.469 1597.74 438.867 1612.93 444.288C1675.35 466.775 1743.43 472.417 1809.32 462.623C1820.67 460.939 1831.95 458.797 1843.14 456.202C1883.05 446.955 1921.89 432.015 1958.05 411.941C1979.47 400.049 1999.33 382.35 2021.19 376.757C2034.64 373.312 2048.78 374.521 2064.52 384.359C2078.27 392.955 2088.08 406.238 2100.05 417.153C2141.61 455.098 2212.33 458.444 2256.98 423.281" stroke="#225E7A" stroke-width="0.552088" stroke-miterlimit="10"/>
<path d="M11.1028 772.08C120.422 691.795 237.697 618.688 364.6 566.477C407.983 548.567 452.536 534.378 498.542 526.064C553.817 516.204 609.782 518.611 665.974 522.707C704.344 525.501 742.824 529.084 781.266 530.089C857.201 532.087 933.4 523.579 1006.04 505.719C1048.52 495.279 1089.76 481.615 1129.1 464.799C1156.81 453.078 1185.53 439.452 1214.93 426.246C1256.32 407.751 1299.09 390.107 1342.73 378.739C1358.38 374.632 1374.1 371.336 1389.87 369.171C1455.17 360.288 1524.33 399.586 1586.47 427.516C1603.08 435.058 1619.22 441.749 1634.64 446.574C1697.91 466.372 1766.15 469.635 1831.95 457.533C1843.27 455.457 1854.54 452.918 1865.71 449.947C1905.56 439.347 1944.37 423.204 1980.84 402.451C2002.45 390.151 2022.65 372.362 2044.91 366.494C2058.63 362.878 2073.01 363.904 2088.99 373.235C2103.06 381.455 2113.38 394.192 2125.79 404.726C2168.79 441.346 2240.08 444.968 2285.96 410.269" stroke="#225E7A" stroke-width="0.552088" stroke-miterlimit="10"/>
<path d="M16.1487 769.634C122.867 688.3 238.911 614.436 365.102 562.424C409.379 544.089 454.833 530.359 501.617 521.26C557.593 510.561 614.381 512.035 671.445 515.469C710.422 517.804 749.532 521.062 788.614 521.989C865.791 523.828 943.243 516.137 1017.07 500.049C1060.24 490.642 1102.1 478.22 1142.16 463.092C1170.37 452.437 1199.59 440.159 1229.41 428.245C1271.44 411.594 1314.79 395.848 1359.2 385.634C1375.08 381.93 1391.08 378.943 1407.11 376.978C1473.67 368.961 1544.21 406.1 1607.39 431.756C1624.29 438.618 1640.66 444.669 1656.32 448.876C1720.4 466.09 1788.85 466.869 1854.55 452.454C1865.86 449.98 1877.1 447.054 1888.25 443.703C1928.03 431.75 1966.81 414.404 2003.59 392.972C2025.39 380.263 2045.92 362.386 2068.6 356.241C2082.58 352.448 2097.2 353.287 2113.43 362.126C2127.83 369.966 2138.66 382.167 2151.5 392.32C2195.94 427.615 2267.8 431.518 2314.92 397.272" stroke="#225E7A" stroke-width="0.552088" stroke-miterlimit="10"/>
<path d="M21.2005 767.183C125.313 684.8 240.126 610.185 365.61 558.361C410.782 539.595 457.113 526.235 504.698 516.452C561.353 504.808 618.98 505.454 676.922 508.22C716.501 510.103 756.246 513.029 795.963 513.873C874.387 515.552 953.087 508.673 1028.1 494.357C1071.96 485.987 1114.48 474.879 1155.22 461.364C1183.97 451.824 1213.66 440.843 1243.89 430.215C1286.57 415.408 1330.49 401.562 1375.67 392.502C1391.8 389.201 1408.06 386.523 1424.36 384.762C1492.18 377.612 1564.05 412.709 1628.34 435.974C1645.49 442.185 1662.11 447.568 1678.01 451.156C1742.89 465.787 1811.55 464.081 1877.17 447.358C1888.46 444.492 1899.68 441.174 1910.81 437.442C1950.52 424.137 1989.27 405.587 2026.36 383.481C2048.35 370.363 2069.22 352.404 2092.31 345.978C2106.55 342.008 2121.42 342.66 2137.88 351.002C2152.61 358.46 2163.96 370.121 2177.22 379.893C2223.1 413.863 2295.53 418.042 2343.89 384.26" stroke="#225E7A" stroke-width="0.552088" stroke-miterlimit="10"/>
<path d="M26.2466 764.737C127.754 681.3 241.335 605.934 366.118 554.309C412.184 535.118 459.41 522.194 507.778 511.654C565.129 499.155 623.584 498.884 682.398 500.988C722.585 502.412 762.959 505.013 803.317 505.78C882.983 507.298 962.931 501.236 1039.13 488.687C1083.68 481.35 1126.86 471.567 1168.27 459.658C1197.55 451.239 1227.7 441.473 1258.38 432.214C1301.67 419.146 1346.21 407.414 1392.14 399.398C1408.53 396.538 1425.03 394.131 1441.6 392.574C1510.69 386.291 1583.88 419.35 1649.28 440.214C1666.69 445.773 1683.56 450.488 1699.71 453.458C1765.38 465.522 1834.26 461.315 1899.79 442.279C1911.05 439.016 1922.25 435.311 1933.37 431.198C1973.02 416.535 2011.74 396.781 2049.14 374.002C2071.33 360.476 2092.53 342.428 2116.02 335.726C2130.54 331.579 2145.64 332.043 2162.34 339.888C2177.4 346.966 2189.26 358.085 2202.95 367.476C2250.27 400.121 2323.27 404.577 2372.88 371.253" stroke="#225E7A" stroke-width="0.552088" stroke-miterlimit="10"/>
<path d="M31.2977 762.286C130.199 677.8 242.549 601.683 366.625 550.251C413.58 530.629 461.706 518.152 510.858 506.845C568.905 493.49 628.189 492.309 687.875 493.744C728.669 494.716 769.678 496.985 810.665 497.67C891.579 499.028 972.774 493.777 1050.16 483.006C1095.4 476.707 1139.25 468.243 1181.33 457.941C1211.14 450.643 1241.76 442.157 1272.86 434.202C1316.8 422.961 1361.91 413.161 1408.61 406.282C1425.24 403.831 1442.01 401.722 1458.84 400.375C1529.19 394.959 1603.7 425.981 1670.21 444.448C1687.89 449.356 1705 453.409 1721.4 455.75C1787.85 465.245 1856.96 458.538 1922.4 437.194C1933.65 433.539 1944.83 429.443 1955.92 424.954C1995.5 408.938 2034.19 387.981 2071.91 364.522C2094.29 350.588 2115.82 332.452 2139.73 325.473C2154.5 321.15 2169.87 321.421 2186.8 328.775C2202.2 335.466 2214.55 346.055 2228.68 355.065C2277.43 386.385 2351 391.122 2401.84 358.251" stroke="#225E7A" stroke-width="0.552088" stroke-miterlimit="10"/>
<path d="M36.3497 759.84C132.65 674.305 243.764 597.438 367.139 546.199C414.989 526.152 464.009 514.122 513.945 502.048C572.687 487.843 632.798 485.739 693.357 486.512C734.758 487.026 776.397 488.969 818.024 489.576C900.18 490.774 982.629 486.341 1061.2 477.337C1107.13 472.07 1151.65 464.931 1194.4 456.236C1224.75 450.058 1255.84 442.853 1287.36 436.195C1331.94 426.787 1377.63 418.915 1425.09 413.173C1441.96 411.13 1458.99 409.325 1476.1 408.182C1547.71 403.633 1623.53 432.623 1691.16 448.689C1709.1 452.951 1726.45 456.335 1743.1 458.052C1810.33 464.992 1879.68 455.772 1945.02 432.115C1956.26 428.068 1967.41 423.574 1978.49 418.71C2018 401.342 2056.66 379.181 2094.68 355.049C2117.26 340.706 2139.13 322.481 2163.45 315.227C2178.49 310.733 2194.1 310.799 2211.26 317.673C2227 323.977 2239.86 334.031 2254.41 342.66C2304.6 372.661 2378.73 377.668 2430.83 345.26" stroke="#225E7A" stroke-width="0.552088" stroke-miterlimit="10"/>
<path d="M41.3958 757.395C135.091 670.805 244.973 593.187 367.642 542.141C416.386 521.664 466.3 510.087 517.02 497.24C576.458 482.19 637.398 479.159 698.828 479.264C740.831 479.324 783.105 480.936 825.373 481.461C908.777 482.499 992.473 478.883 1072.23 471.645C1118.86 467.416 1164.04 461.608 1207.46 454.508C1238.35 449.456 1269.9 443.527 1301.84 438.172C1347.07 430.592 1393.32 424.646 1441.56 420.047C1458.68 418.412 1475.96 416.911 1493.34 415.972C1566.21 412.29 1643.34 439.254 1712.09 452.912C1730.29 456.529 1747.89 459.245 1764.79 460.338C1832.8 464.733 1902.38 452.99 1967.63 427.02C1978.84 422.575 1989.97 417.695 2001.03 412.45C2040.48 393.729 2079.12 370.364 2117.45 345.553C2140.22 330.802 2162.42 312.494 2187.15 304.958C2202.45 300.288 2218.33 300.15 2235.71 306.543C2251.79 312.456 2265.14 321.985 2280.13 330.227C2331.76 358.903 2406.46 364.186 2459.79 332.237" stroke="#225E7A" stroke-width="0.552088" stroke-miterlimit="10"/>
<path d="M46.4471 754.943C137.536 667.305 246.187 588.936 368.155 538.083C417.793 517.181 468.602 506.051 520.112 492.436C580.245 476.542 642.013 472.583 704.316 472.026C746.926 471.628 789.835 472.92 832.732 473.362C917.378 474.239 1002.33 471.435 1083.26 465.975C1130.58 462.778 1176.43 458.301 1220.52 452.796C1251.95 448.871 1283.97 444.217 1316.33 440.165C1362.21 434.417 1409.03 430.393 1458.04 426.937C1475.4 425.711 1492.95 424.513 1510.6 423.779C1584.74 420.963 1663.17 445.906 1733.04 457.147C1751.5 460.117 1769.35 462.171 1786.5 462.635C1855.27 464.49 1925.09 450.218 1990.26 421.94C2001.45 417.104 2012.56 411.831 2023.6 406.206C2062.98 386.132 2101.59 361.558 2140.23 336.074C2163.19 320.913 2185.73 302.518 2210.87 294.706C2226.44 289.858 2242.58 289.516 2260.18 295.429C2276.61 300.95 2290.46 309.949 2305.87 317.816C2358.94 345.167 2434.21 350.732 2488.79 319.241" stroke="#225E7A" stroke-width="0.552088" stroke-miterlimit="10"/>
<path d="M51.4935 752.497C139.977 663.81 247.397 584.685 368.657 534.03C419.19 512.698 470.893 502.02 523.187 487.633C584.022 470.894 646.606 466.008 709.793 464.787C753.01 463.937 796.548 464.898 840.086 465.257C925.98 465.974 1012.18 463.987 1094.3 460.293C1142.32 458.135 1188.83 454.993 1233.58 451.079C1265.56 448.286 1298.04 444.901 1330.83 442.146C1377.35 438.237 1424.74 436.129 1474.51 433.81C1492.12 432.993 1509.93 432.098 1527.85 431.568C1603.24 429.619 1682.98 452.548 1753.99 461.37C1772.7 463.694 1790.79 465.086 1808.2 464.92C1877.74 464.246 1947.8 447.435 2012.88 416.844C2024.06 411.61 2035.14 405.951 2046.16 399.945C2085.48 378.518 2124.05 352.741 2163 326.583C2186.15 311.014 2209.02 292.53 2234.58 284.442C2250.41 279.418 2266.81 278.866 2284.64 284.304C2301.41 289.428 2315.76 297.875 2331.59 305.388C2386.15 331.298 2461.94 337.255 2517.76 306.222" stroke="#225E7A" stroke-width="0.552088" stroke-miterlimit="10"/>
<path d="M56.5448 750.052C142.428 660.31 248.617 580.439 369.165 529.978C420.592 508.22 473.195 497.996 526.267 482.835C587.798 465.257 651.21 459.438 715.269 457.555C759.094 456.247 803.261 456.882 847.439 457.163C934.575 457.721 1022.03 456.55 1105.33 454.624C1154.04 453.497 1201.23 451.698 1246.64 449.373C1279.16 447.711 1312.11 445.602 1345.31 444.145C1392.48 442.075 1440.43 441.876 1490.98 440.705C1508.84 440.291 1526.91 439.706 1545.1 439.38C1621.75 438.298 1702.8 459.217 1774.93 465.616C1793.89 467.3 1812.24 468.028 1829.89 467.222C1900.2 464.031 1970.51 444.669 2035.5 411.771C2046.65 406.145 2057.72 400.088 2068.72 393.706C2107.97 370.927 2146.51 343.946 2185.77 317.109C2209.12 301.132 2232.33 282.565 2258.29 274.196C2274.38 268.995 2291.05 268.227 2309.09 273.202C2326.23 277.922 2341.06 285.85 2357.32 292.989C2413.32 317.573 2489.68 323.806 2546.73 293.232" stroke="#225E7A" stroke-width="0.552088" stroke-miterlimit="10"/>
<path d="M61.5964 747.6C144.873 656.809 249.831 576.182 369.679 525.915C421.995 503.726 475.497 493.96 529.354 478.021C591.58 459.603 655.821 452.857 720.752 450.306C765.178 448.545 809.98 448.849 854.793 449.047C943.177 449.445 1031.88 449.086 1116.37 448.932C1165.77 448.843 1213.63 448.379 1259.71 447.645C1292.77 447.115 1326.19 446.282 1359.81 446.121C1407.63 445.89 1456.14 447.601 1507.46 447.579C1525.56 447.573 1543.89 447.292 1562.35 447.165C1640.27 446.95 1722.61 465.864 1795.87 469.828C1815.09 470.871 1833.68 470.938 1851.58 469.497C1922.66 463.794 1993.22 441.876 2058.11 406.664C2069.25 400.64 2080.29 394.197 2091.28 387.434C2130.46 363.297 2168.97 335.118 2208.55 307.602C2232.08 291.216 2255.62 272.561 2282 263.916C2298.36 258.544 2315.3 257.556 2333.56 262.061C2351.04 266.372 2366.36 273.787 2383.05 280.545C2440.49 303.798 2517.41 310.319 2575.72 280.202" stroke="#225E7A" stroke-width="0.552088" stroke-miterlimit="10"/>
<path d="M66.643 745.155C147.314 653.315 251.14 572.175 370.181 521.863C423.436 499.354 477.794 489.941 532.429 473.224C595.356 453.972 660.42 446.287 726.223 443.069C771.257 440.849 816.694 440.827 862.142 440.949C951.768 441.186 1041.71 441.644 1127.39 443.262C1177.48 444.206 1226.02 445.095 1272.76 445.94C1306.36 446.547 1340.25 446.989 1374.28 448.115C1422.75 449.721 1471.83 453.343 1523.92 454.469C1542.27 454.867 1560.86 454.895 1579.59 454.972C1658.77 455.623 1742.41 472.539 1816.8 474.069C1836.27 474.472 1855.12 473.875 1873.28 471.799C1945.12 463.59 2015.92 439.11 2080.72 401.59C2091.84 395.175 2102.86 388.34 2113.83 381.196C2152.94 355.706 2191.43 326.324 2231.31 298.134C2255.04 281.34 2278.92 262.597 2305.7 253.675C2322.33 248.126 2339.53 246.917 2358 250.958C2375.84 254.862 2391.65 261.763 2408.76 268.14C2467.63 290.063 2545.13 296.865 2604.68 267.207" stroke="#225E7A" stroke-width="0.552088" stroke-miterlimit="10"/>
<path d="M71.6944 742.709C149.76 649.814 252.354 567.929 370.695 517.81C424.843 494.876 480.097 485.921 535.515 468.426C599.143 448.341 665.03 439.717 731.705 435.836C777.346 433.164 823.413 432.81 869.501 432.849C960.375 432.932 1051.57 434.196 1138.43 437.586C1189.22 439.568 1238.43 441.804 1285.83 444.228C1319.97 445.978 1354.33 447.684 1388.78 450.107C1437.9 453.558 1487.54 459.079 1540.41 461.359C1559 462.159 1577.85 462.491 1596.85 462.778C1677.29 464.296 1762.23 479.213 1837.75 478.308C1857.49 478.071 1876.57 476.812 1894.98 474.101C1967.6 463.396 2038.64 436.344 2103.35 396.511C2114.45 389.703 2125.45 382.477 2136.4 374.952C2175.44 348.109 2213.9 317.518 2254.09 288.655C2278.02 271.457 2302.23 252.625 2329.43 243.422C2346.32 237.697 2363.79 236.261 2382.47 239.844C2400.66 243.334 2416.95 249.732 2434.5 255.728C2494.81 276.326 2572.88 283.404 2633.67 254.21" stroke="#225E7A" stroke-width="0.552088" stroke-miterlimit="10"/>
<path d="M76.7403 740.258C152.205 646.315 253.563 563.673 371.197 513.753C426.24 490.394 482.393 481.897 538.59 463.617C602.919 442.699 669.628 433.137 737.176 428.593C783.425 425.463 830.12 424.784 876.844 424.745C968.96 424.668 1061.41 426.749 1149.46 431.906C1200.94 434.92 1250.82 438.508 1298.88 442.511C1333.56 445.399 1368.39 448.38 1403.26 452.095C1453.03 457.395 1503.24 464.81 1556.87 468.244C1575.7 469.448 1594.82 470.088 1614.09 470.579C1695.79 472.964 1782.03 485.894 1858.68 482.543C1878.67 481.671 1898 479.75 1916.67 476.393C1990.05 463.198 2061.34 433.567 2125.96 391.421C2137.04 384.216 2148.02 376.597 2158.94 368.697C2197.93 340.502 2236.35 308.707 2276.86 279.165C2300.97 261.559 2325.51 242.638 2353.13 233.159C2370.28 227.257 2388.03 225.59 2406.92 228.72C2425.47 231.796 2442.24 237.686 2460.22 243.301C2521.96 262.574 2600.61 269.934 2662.63 241.192" stroke="#225E7A" stroke-width="0.552088" stroke-miterlimit="10"/>
<path d="M81.792 737.812C154.651 642.82 254.678 559.189 371.71 509.7C427.604 485.8 484.701 477.878 541.676 458.82C606.707 437.067 674.233 426.567 742.659 421.36C789.509 417.777 836.839 416.773 884.203 416.646C977.567 416.408 1071.26 419.307 1160.5 426.235C1212.67 430.288 1263.22 435.229 1311.94 440.805C1347.17 444.841 1382.47 449.086 1417.75 454.088C1468.17 461.232 1518.94 470.546 1573.35 475.134C1592.43 476.74 1611.81 477.69 1631.34 478.386C1714.31 481.637 1801.85 492.58 1879.64 486.777C1899.87 485.265 1919.46 482.686 1938.37 478.689C2012.53 463.01 2084.05 430.796 2148.58 386.341C2159.64 378.745 2170.6 370.734 2181.51 362.453C2220.43 332.905 2258.83 299.906 2299.64 269.691C2323.95 251.676 2348.83 232.668 2376.85 222.912C2394.26 216.839 2412.28 214.935 2431.39 217.618C2450.29 220.273 2467.53 225.7 2485.96 230.895C2549.1 248.971 2628.34 256.479 2691.62 228.201" stroke="#225E7A" stroke-width="0.552088" stroke-miterlimit="10"/>
<path d="M86.8439 735.366C157.097 639.319 255.894 554.938 372.219 505.642C429.001 481.317 486.998 473.852 544.757 454.01C610.489 431.43 678.837 419.991 748.136 414.111C795.593 410.07 843.559 408.739 891.557 408.535C986.163 408.137 1081.11 411.847 1171.53 420.548C1224.39 425.633 1275.62 431.932 1325.01 439.082C1360.78 444.26 1396.54 449.781 1432.25 456.07C1483.31 465.063 1534.65 476.271 1589.83 482.012C1609.15 484.022 1628.79 485.281 1648.59 486.18C1732.82 490.299 1821.67 499.265 1900.57 491.006C1921.07 488.858 1940.9 485.623 1960.06 480.98C2035 462.822 2106.75 428.018 2171.19 381.251C2182.24 373.256 2193.17 364.859 2204.06 356.202C2242.92 325.302 2281.28 291.1 2322.41 260.205C2346.91 241.782 2372.12 222.691 2400.55 212.654C2418.23 206.404 2436.52 204.262 2455.84 206.498C2475.09 208.728 2492.82 213.664 2511.68 218.478C2576.26 235.229 2656.08 243.013 2720.59 215.193" stroke="#225E7A" stroke-width="0.552088" stroke-miterlimit="10"/>
<path d="M91.8899 732.914C159.537 635.819 257.102 550.686 372.721 501.584C430.397 476.828 489.294 469.833 547.832 449.207C614.265 425.799 683.436 413.415 753.607 406.873C801.671 402.379 850.266 400.717 898.9 400.43C994.753 399.872 1090.95 404.4 1182.55 414.867C1236.11 420.99 1288 428.647 1338.05 437.365C1374.36 443.692 1410.59 450.477 1446.72 458.057C1498.43 468.906 1550.34 481.996 1606.29 488.891C1625.85 491.304 1645.75 492.872 1665.83 493.976C1751.32 498.961 1841.47 505.951 1921.5 495.235C1942.25 492.458 1962.34 488.56 1981.75 483.271C2057.46 462.645 2129.45 425.241 2193.8 376.166C2204.83 367.78 2215.74 358.99 2226.61 349.953C2265.39 317.7 2303.73 282.289 2345.16 250.726C2369.86 231.894 2395.4 212.714 2424.24 202.401C2442.19 195.975 2460.74 193.59 2480.28 195.384C2499.88 197.184 2518.1 201.629 2537.39 206.062C2603.41 221.493 2683.79 229.553 2749.55 202.186" stroke="#225E7A" stroke-width="0.552088" stroke-miterlimit="10"/>
<path d="M96.9414 730.469C161.983 632.324 258.317 546.441 373.234 497.532C431.805 472.351 491.607 465.82 550.924 444.404C618.058 420.168 688.052 406.84 759.094 399.635C807.767 394.683 856.991 392.696 906.265 392.331C1003.36 391.614 1100.81 396.952 1193.6 409.198C1247.85 416.353 1300.41 425.374 1351.13 435.659C1387.97 443.135 1424.68 451.19 1461.22 460.051C1513.58 472.749 1566.05 487.727 1622.77 495.782C1642.58 498.597 1662.75 500.474 1683.09 501.783C1769.84 507.635 1861.29 512.648 1942.45 499.47C1963.46 496.058 1983.79 491.503 2003.46 485.568C2079.96 462.474 2152.17 422.47 2216.43 371.081C2227.43 362.298 2238.33 353.117 2249.18 343.703C2287.89 310.092 2326.2 273.483 2367.95 241.241C2392.83 222.001 2418.71 202.733 2447.97 192.139C2466.17 185.536 2485 182.908 2504.75 184.26C2524.71 185.629 2543.41 189.588 2563.13 193.635C2630.58 207.741 2711.54 216.077 2778.54 189.174" stroke="#225E7A" stroke-width="0.552088" stroke-miterlimit="10"/>
<path d="M101.987 728.024C164.429 628.824 259.531 542.191 373.737 493.48C433.202 467.869 493.904 461.807 553.999 439.607C621.839 414.542 692.65 400.271 764.565 392.404C813.845 386.999 863.698 384.68 913.607 384.233C1011.95 383.355 1110.65 389.511 1204.62 403.523C1259.56 411.716 1312.79 422.095 1364.17 433.948C1401.56 442.572 1438.73 451.897 1475.69 462.044C1528.71 476.597 1581.74 493.458 1639.23 502.672C1659.29 505.885 1679.71 508.077 1700.33 509.59C1788.34 516.309 1881.11 519.351 1963.39 503.71C1984.65 499.669 2005.24 494.452 2025.14 487.865C2102.43 462.303 2174.87 419.699 2239.03 366.003C2250.03 356.827 2260.89 347.254 2271.73 337.46C2310.39 302.496 2348.66 264.683 2390.71 231.762C2415.79 212.113 2442.01 192.763 2471.67 181.887C2490.15 175.107 2509.24 172.231 2529.2 173.153C2549.52 174.086 2568.7 177.558 2588.85 181.23C2657.74 194.011 2739.26 202.623 2807.51 176.178" stroke="#225E7A" stroke-width="0.552088" stroke-miterlimit="10"/>
<path d="M107.039 725.572C166.874 625.324 260.746 537.939 374.25 489.416C434.61 463.38 496.212 457.787 557.085 434.793C625.627 408.905 697.26 393.684 770.048 385.149C819.929 379.286 870.423 376.641 920.966 376.117C1020.55 375.079 1120.5 382.052 1215.66 397.83C1271.29 407.056 1325.19 418.804 1377.25 432.22C1415.17 441.992 1452.8 452.586 1490.19 464.02C1543.84 480.428 1597.46 499.172 1655.72 509.545C1676.02 513.162 1696.71 515.662 1717.59 517.379C1806.86 524.965 1900.94 526.042 1984.34 507.933C2005.86 503.257 2026.7 497.383 2046.85 490.15C2124.93 462.132 2197.59 416.916 2261.66 360.907C2272.64 351.333 2283.48 341.374 2294.3 331.199C2332.89 294.882 2371.13 255.866 2413.5 222.272C2438.77 202.214 2465.32 182.775 2495.4 171.623C2514.13 164.672 2533.5 161.542 2553.67 162.028C2574.34 162.525 2594.02 165.517 2614.59 168.802C2684.92 180.258 2767.01 189.146 2836.5 163.165" stroke="#225E7A" stroke-width="0.552088" stroke-miterlimit="10"/>
<path d="M112.09 723.127C169.32 621.83 261.961 533.689 374.758 485.364C436.007 458.897 498.514 453.774 560.166 429.995C629.414 403.285 701.859 387.115 775.524 377.917C826.013 371.601 877.136 368.631 928.32 368.018C1029.15 366.82 1130.35 374.604 1226.69 392.161C1283.02 402.424 1337.58 415.536 1390.3 430.514C1428.76 441.44 1466.87 453.299 1504.68 466.014C1558.98 484.277 1613.16 504.897 1672.19 516.436C1692.74 520.449 1713.68 523.26 1734.83 525.181C1825.37 533.633 1920.76 532.75 2005.27 512.168C2027.06 506.863 2048.14 500.331 2068.54 492.448C2147.41 461.972 2220.29 414.145 2284.27 355.822C2295.23 345.857 2306.05 335.505 2316.85 324.949C2355.37 287.28 2393.59 247.061 2436.26 212.787C2461.72 192.321 2488.61 172.794 2519.1 161.366C2538.09 154.238 2557.73 150.854 2578.12 150.909C2599.14 150.964 2619.3 153.476 2640.3 156.386C2712.07 166.517 2794.74 175.687 2865.46 150.158" stroke="#225E7A" stroke-width="0.552088" stroke-miterlimit="10"/>
<path d="M117.137 720.681C171.76 618.329 263.17 529.443 375.266 481.312C437.409 454.419 500.866 449.887 563.246 425.197C633.251 397.797 706.464 380.55 781.001 370.684C832.097 363.91 883.85 360.614 935.669 359.924C1037.74 358.566 1140.19 367.167 1237.72 386.49C1294.74 397.786 1349.96 412.268 1403.36 428.808C1442.35 440.888 1480.93 454.011 1519.16 468.012C1574.1 488.13 1628.89 510.512 1688.66 523.331C1709.46 527.709 1730.65 530.867 1752.08 532.993C1843.87 542.312 1940.58 539.463 2026.21 516.408C2048.25 510.473 2069.59 503.279 2090.23 494.749C2169.9 461.817 2243 411.379 2306.89 350.748C2317.82 340.391 2328.62 329.642 2339.4 318.711C2377.86 279.689 2416.04 238.26 2459.04 203.313C2484.69 182.439 2511.91 162.828 2542.81 151.119C2562.07 143.814 2581.97 140.176 2602.58 139.801C2623.95 139.414 2644.6 141.446 2666.03 143.975C2739.24 152.78 2822.47 162.227 2894.44 137.156" stroke="#225E7A" stroke-width="0.552088" stroke-miterlimit="10"/>
<path d="M122.188 718.229C174.212 614.828 264.384 525.191 375.774 477.253C438.811 449.931 503.168 445.856 566.327 420.388C637.033 392.155 711.068 373.969 786.478 363.44C838.181 356.214 890.563 352.586 943.022 351.813C1046.35 350.295 1150.04 359.708 1248.75 380.804C1306.47 393.137 1362.34 408.982 1416.42 427.085C1455.95 440.319 1494.97 454.778 1533.65 469.993C1589.19 492.066 1644.59 516.242 1705.13 530.21C1726.17 534.991 1747.63 538.458 1769.32 540.788C1862.38 550.974 1960.41 546.165 2047.15 520.637C2069.45 514.072 2091.04 506.221 2111.93 497.035C2192.39 461.651 2265.7 408.596 2329.5 345.652C2340.42 334.897 2351.2 323.762 2361.96 312.449C2400.35 272.075 2438.5 229.443 2481.8 193.822C2507.65 172.539 2535.2 152.841 2566.52 140.855C2586.04 133.374 2606.21 129.482 2627.04 128.681C2648.76 127.848 2669.89 129.41 2691.76 131.552C2766.41 139.033 2850.21 148.761 2923.42 124.149" stroke="#225E7A" stroke-width="0.552088" stroke-miterlimit="10"/>
<path d="M127.234 715.784C176.652 611.334 265.593 520.941 376.276 473.196C440.208 445.448 505.465 441.832 569.402 415.586C640.809 386.513 715.667 367.394 791.949 356.197C844.254 348.512 897.276 344.559 950.371 343.709C1054.94 342.031 1159.88 352.261 1259.78 375.123C1318.19 388.489 1374.73 405.709 1429.48 425.369C1469.54 439.756 1509.03 455.474 1548.14 471.976C1604.33 495.898 1660.3 521.968 1721.61 537.089C1742.9 542.273 1764.62 546.05 1786.58 548.584C1880.89 559.637 1980.24 552.873 2068.1 524.866C2090.66 517.672 2112.5 509.165 2133.63 499.326C2214.9 461.492 2288.41 405.819 2352.12 340.568C2363.02 329.421 2373.78 317.894 2384.52 306.2C2422.85 264.473 2460.97 220.638 2504.58 184.338C2530.62 162.646 2558.51 142.859 2590.23 130.597C2610.02 122.94 2630.45 118.788 2651.49 117.563C2673.56 116.276 2695.19 117.369 2717.48 119.136C2793.57 125.292 2877.94 135.296 2952.39 111.142" stroke="#225E7A" stroke-width="0.552088" stroke-miterlimit="10"/>
<path d="M132.286 713.338C179.098 607.834 266.808 516.695 376.789 469.144C441.616 440.965 507.773 437.813 572.488 410.783C644.597 380.876 720.277 360.819 797.431 348.96C850.344 340.817 903.995 336.538 957.725 335.605C1063.54 333.766 1169.73 344.814 1270.81 369.448C1329.92 383.852 1387.11 402.435 1442.54 423.657C1483.13 439.199 1523.1 456.17 1562.62 473.969C1619.45 499.735 1676 527.704 1738.07 543.974C1759.61 549.561 1781.59 553.647 1803.82 556.385C1899.4 568.305 2000.07 559.582 2089.03 529.101C2111.85 521.278 2133.94 512.113 2155.32 501.623C2237.39 461.343 2311.11 403.048 2374.73 335.483C2385.61 323.939 2396.35 312.025 2407.07 299.951C2445.33 256.866 2483.42 211.832 2527.34 174.853C2553.58 152.753 2581.79 132.884 2613.93 120.34C2633.98 112.512 2654.67 108.089 2675.94 106.444C2698.35 104.71 2720.48 105.334 2743.2 106.714C2820.73 111.545 2905.66 121.825 2981.36 98.1351" stroke="#225E7A" stroke-width="0.552088" stroke-miterlimit="10"/>
<path d="M137.337 710.887C181.543 604.334 268.022 512.439 377.297 465.086C443.018 436.482 510.075 433.788 575.569 405.979C648.378 375.239 724.881 354.243 802.913 341.722C856.433 333.126 910.714 328.516 965.084 327.5C1072.15 325.507 1179.59 337.36 1281.86 363.767C1341.65 379.203 1399.47 399.249 1455.6 421.935C1496.7 438.696 1537.17 456.86 1577.12 475.951C1634.59 503.561 1691.72 533.434 1754.55 550.853C1776.34 556.843 1798.58 561.238 1821.08 564.18C1917.92 576.967 2019.97 566.449 2109.98 533.324C2133.08 524.916 2155.41 515.05 2177.02 503.909C2259.91 461.177 2333.83 400.265 2397.36 330.393C2408.22 318.457 2418.93 306.145 2429.64 293.696C2467.83 249.258 2505.9 203.021 2550.12 165.368C2576.55 142.865 2605.11 122.901 2637.65 110.082C2657.97 102.077 2678.92 97.3949 2700.41 95.3246C2723.17 93.1328 2745.79 93.2929 2768.95 94.2921C2847.91 97.7979 2933.41 108.359 3010.35 85.122" stroke="#225E7A" stroke-width="0.552088" stroke-miterlimit="10"/>
<path d="M142.384 708.441C183.989 600.839 269.237 508.193 377.805 461.033C444.415 431.999 512.377 429.763 578.65 401.176C652.16 369.602 729.486 347.673 808.39 334.483C862.517 325.429 917.428 320.494 972.438 319.4C1080.74 317.247 1189.44 329.918 1292.89 358.091C1353.37 374.565 1411.86 395.959 1468.67 420.223C1510.3 438.127 1551.24 457.561 1591.61 477.938C1649.72 507.392 1707.42 539.165 1771.03 557.737C1793.06 564.136 1815.56 568.834 1838.32 571.981C1936.43 585.634 2039.8 573.129 2130.92 537.558C2154.28 528.509 2176.89 518.036 2198.71 506.205C2282.51 461.193 2356.53 397.493 2419.97 325.308C2430.81 312.974 2441.51 300.276 2452.19 287.451C2490.32 241.661 2528.35 194.214 2572.89 155.888C2599.51 132.977 2628.4 112.925 2661.36 99.8292C2681.94 91.6473 2703.15 86.7005 2724.87 84.2161C2747.97 81.5716 2771.08 81.268 2794.66 81.8863C2875.07 84.0671 2961.14 94.9046 3039.32 72.1254" stroke="#225E7A" stroke-width="0.552088" stroke-miterlimit="10"/>
<path d="M147.436 705.994C186.435 597.338 270.452 503.947 378.313 456.98C445.817 427.521 514.68 425.743 581.736 396.378C655.948 363.965 734.09 341.102 813.873 327.251C868.601 317.744 924.152 312.482 979.792 311.301C1089.34 308.987 1199.29 322.475 1303.92 352.42C1365.1 369.927 1424.25 392.673 1481.72 418.516C1523.89 437.558 1565.3 458.261 1606.09 479.936C1664.85 511.234 1723.12 544.906 1787.5 564.632C1809.77 571.434 1832.54 576.441 1855.57 579.792C1954.93 594.312 2059.62 579.815 2151.86 541.803C2175.48 532.12 2198.34 520.984 2220.41 508.507C2305 460.994 2379.24 394.732 2442.59 320.234C2453.42 307.508 2464.08 294.418 2474.75 281.212C2512.81 234.069 2550.81 185.419 2595.67 146.414C2622.48 123.094 2651.7 102.959 2685.07 89.582C2705.92 81.2234 2727.38 76.0117 2749.32 73.1077C2772.77 70.0049 2796.38 69.2375 2820.39 69.4749C2902.23 70.3361 2988.87 81.4442 3068.29 59.1288" stroke="#225E7A" stroke-width="0.552088" stroke-miterlimit="10"/>
<path d="M152.481 703.544C188.875 593.838 271.661 499.69 378.821 452.918C447.22 423.027 516.981 421.714 584.816 391.569C659.729 358.323 738.695 334.522 819.349 320.002C874.685 310.037 930.866 304.45 987.146 303.191C1097.94 300.718 1209.13 315.017 1314.96 346.734C1376.83 365.279 1436.64 389.372 1494.79 416.794C1537.5 436.979 1579.38 458.952 1620.59 481.919C1679.99 515.061 1738.84 550.637 1803.98 571.512C1826.5 578.716 1849.52 584.028 1872.83 587.589C1973.46 602.975 2079.46 586.484 2172.81 546.027C2196.69 535.703 2219.8 523.905 2242.12 510.793C2327.5 460.779 2401.96 391.95 2465.22 315.138C2476.03 302.021 2486.67 288.539 2497.32 274.952C2535.31 226.456 2573.29 176.603 2618.45 136.924C2645.46 113.195 2675.01 92.9724 2708.8 79.3193C2729.91 70.784 2751.62 65.2632 2773.8 61.9838C2797.58 58.3786 2821.69 57.1971 2846.13 57.048C2929.42 56.5842 3016.62 67.9684 3097.29 46.1112" stroke="#225E7A" stroke-width="0.552088" stroke-miterlimit="10"/>
<path d="M157.533 701.098C191.321 590.343 272.875 495.445 379.329 448.865C448.622 418.55 519.278 417.694 587.897 386.766C663.511 352.686 743.299 327.947 824.826 312.764C990.888 281.836 1164.61 290.559 1325.99 341.059C1434.54 375.029 1536.79 426.649 1635.07 483.912C1695.12 518.897 1754.54 556.373 1820.45 578.401C1941.61 618.897 2077.42 603.085 2193.74 550.267C2310.07 497.449 2408.12 409.904 2487.82 310.059C2560.16 219.456 2625.13 112.814 2732.49 69.0666C2855.28 19.0364 2997.96 66.632 3126.25 33.1147" stroke="#225E7A" stroke-width="0.552088" stroke-miterlimit="10"/>
<path d="M413.862 0.999411C412.509 140.981 462.004 280.914 551.073 388.908C576.414 419.632 606.132 448.683 643.608 462.159C751.895 501.092 867.524 415.982 958.569 367.658C1068.44 309.346 1177.07 248.236 1291.47 199.028C1355.69 171.402 1431.12 147.954 1493.25 180.02C1556.16 212.494 1580.1 288.108 1606.11 353.955C1636.41 430.684 1678.14 504.598 1739.4 559.851C1800.66 615.104 1883.48 649.985 1965.48 640.992C2029.7 633.947 2088.22 601.363 2141.66 565.052C2282.06 469.64 2401.34 343.327 2488.56 197.692" stroke="#225E7A" stroke-width="0.552088" stroke-miterlimit="10"/>
<path d="M410.351 7.05144C409.153 130.769 452.674 251.853 529.84 355.701C537.006 365.346 544.382 374.831 552.078 384.056C577.38 414.36 606.845 443.041 643.791 456.623C750.642 495.948 864.505 415.288 955.423 368.697C1036.03 327.39 1116.06 283.775 1198.94 244.295C1227.7 230.542 1256.7 217.298 1286.07 204.804C1349.78 177.707 1424.32 154.575 1485.98 185.144C1548.42 216.1 1573.13 288.788 1599.86 352.057C1631.01 425.777 1673.22 496.82 1734.36 549.942C1755.65 568.437 1779.48 584.558 1804.92 597.35C1852.53 621.3 1905.83 633.611 1958.79 628.013C2022.41 621.289 2080.5 590.024 2133.6 555.369C2241.09 485.259 2336.07 398.234 2414.38 297.985C2437.75 268.073 2459.63 236.991 2479.9 204.821" stroke="#225E7A" stroke-width="0.552088" stroke-miterlimit="10"/>
<path d="M406.845 13.0965C405.686 132.69 451.526 247.066 530.883 351.284C538.088 360.741 545.419 370.105 553.088 379.192C578.357 409.071 607.563 437.388 643.984 451.079C749.405 490.802 861.484 414.586 952.281 369.724C1032.04 330.316 1111.38 287.854 1194.21 249.208C1222.75 235.781 1251.54 222.818 1280.67 210.568C1343.87 183.996 1417.52 161.183 1478.71 190.256C1540.67 219.699 1566.17 289.461 1593.61 350.147C1625.6 420.858 1668.3 489.03 1729.32 540.015C1750.57 557.765 1774.28 573.24 1799.55 585.513C1846.83 608.502 1899.64 620.35 1952.1 615.017C2015.11 608.607 2072.77 578.667 2125.53 545.674C2232.38 478.943 2326.74 396.699 2405.28 301.06C2428.71 272.523 2450.74 242.804 2471.23 211.937" stroke="#225E7A" stroke-width="0.552088" stroke-miterlimit="10"/>
<path d="M403.334 19.1471C402.219 134.616 450.344 242.285 531.921 346.872C539.158 356.153 546.446 365.389 554.087 374.333C579.318 403.793 608.275 431.734 644.16 445.536C748.146 485.651 858.431 413.879 949.128 370.756C1028.03 333.241 1106.76 292.133 1189.46 254.121C1217.83 241.081 1246.37 228.339 1275.27 216.331C1337.95 190.289 1410.71 167.791 1471.43 195.368C1532.92 223.298 1559.19 290.129 1587.35 348.236C1620.18 415.939 1663.37 481.24 1724.27 530.094C1745.48 547.098 1769.07 561.927 1794.17 573.687C1841.12 595.715 1893.42 607.099 1945.39 602.026C2007.8 595.931 2065.03 567.316 2117.45 535.985C2223.67 472.627 2317.4 395.169 2396.16 304.135C2419.67 276.972 2441.83 248.617 2462.55 219.047" stroke="#225E7A" stroke-width="0.552088" stroke-miterlimit="10"/>
<path d="M399.828 25.1931C398.752 136.538 449.141 237.51 532.97 342.456C540.241 351.555 547.49 360.67 555.103 369.47C580.3 398.504 608.998 426.081 644.354 439.994C746.904 480.501 855.384 413.162 945.993 371.783C1024.02 336.151 1102.11 296.274 1184.74 259.036C1212.91 246.338 1241.21 233.861 1269.88 222.096C1332.05 196.578 1403.92 174.395 1464.17 200.481C1525.18 226.893 1552.24 290.797 1581.11 346.326C1614.79 411.02 1658.45 473.456 1719.24 520.174C1740.42 536.438 1763.88 550.616 1788.82 561.862C1835.42 582.924 1887.23 593.844 1938.71 589.041C2000.53 583.266 2057.32 555.971 2109.4 526.302C2214.98 466.323 2308.09 393.646 2387.08 307.222C2410.66 281.434 2432.95 254.442 2453.9 226.175" stroke="#225E7A" stroke-width="0.552088" stroke-miterlimit="10"/>
<path d="M396.322 31.2429C395.284 138.464 447.915 232.744 534.013 338.044C541.312 346.966 548.528 355.948 556.108 364.611C581.266 393.225 609.716 420.432 644.541 434.45C745.656 475.349 852.314 412.438 942.851 372.809C1019.99 339.043 1097.44 300.408 1180 263.943C1207.97 251.587 1236.05 239.375 1264.48 227.853C1326.14 202.865 1397.12 180.997 1456.9 205.587C1517.44 230.486 1545.26 291.459 1574.86 344.41C1609.38 406.1 1653.53 465.659 1714.2 510.241C1735.34 525.76 1758.68 539.291 1783.45 550.024C1829.72 570.126 1881.04 580.582 1932.01 576.038C1993.23 570.578 2049.6 544.603 2101.34 516.595C2206.27 459.989 2298.76 392.099 2377.98 310.28C2401.62 285.866 2424.06 260.238 2445.23 233.274" stroke="#225E7A" stroke-width="0.552088" stroke-miterlimit="10"/>
<path d="M392.811 37.2944C391.812 140.391 446.651 227.997 535.051 333.639C542.372 342.384 549.555 351.24 557.113 359.758C582.233 387.948 610.428 414.791 644.724 428.918C744.409 470.209 849.223 411.721 939.704 373.853C1015.95 341.942 1092.77 304.561 1175.26 268.874C1203.03 256.86 1230.89 244.913 1259.08 233.639C1320.23 209.176 1390.31 187.628 1449.63 210.722C1509.69 234.109 1538.3 292.15 1568.61 342.522C1603.97 401.204 1648.6 457.892 1709.16 500.342C1730.26 515.116 1753.48 528.002 1778.08 538.215C1824.02 557.356 1874.84 567.349 1925.32 563.07C1985.93 557.925 2041.88 533.274 2093.28 506.929C2197.57 453.702 2289.43 390.592 2368.88 313.383C2392.59 290.344 2415.17 266.08 2436.57 240.419" stroke="#225E7A" stroke-width="0.552088" stroke-miterlimit="10"/>
<path d="M389.305 43.3396C388.35 142.313 445.37 223.249 536.1 329.222C543.443 337.796 550.598 346.519 558.123 354.894C583.21 382.664 611.151 409.137 644.917 423.37C743.167 465.058 846.131 410.97 936.563 374.874C1011.9 344.808 1088.09 308.684 1170.53 273.776C1198.1 262.099 1225.73 250.428 1253.69 239.392C1314.32 215.459 1383.51 194.225 1442.36 215.823C1501.95 237.691 1531.33 292.812 1562.36 340.601C1598.56 396.273 1643.68 450.091 1704.11 490.404C1725.17 504.438 1748.28 516.673 1772.71 526.373C1818.31 544.553 1868.63 554.077 1918.62 550.063C1978.64 545.238 2034.15 521.907 2085.22 497.223C2188.87 447.369 2280.11 389.046 2359.79 316.441C2383.57 294.777 2406.29 271.877 2427.91 247.518" stroke="#225E7A" stroke-width="0.552088" stroke-miterlimit="10"/>
<path d="M385.794 49.3909C384.878 144.24 444.05 218.523 537.138 324.811C544.497 333.214 551.625 341.799 559.128 350.036C584.176 377.381 611.863 403.484 645.099 417.827C741.913 459.907 843.006 410.219 933.416 375.907C1007.82 347.668 1083.41 312.82 1165.79 278.695C1193.16 267.361 1220.56 255.955 1248.29 245.161C1308.41 221.753 1376.7 200.84 1435.09 220.936C1494.21 241.291 1524.37 293.48 1556.11 338.691C1593.16 391.355 1638.76 442.301 1699.07 480.484C1720.09 493.772 1743.08 505.361 1767.35 514.548C1812.61 531.762 1862.43 540.827 1911.93 537.073C1971.34 532.562 2026.42 510.556 2077.16 487.528C2180.17 441.054 2270.78 387.512 2350.69 319.517C2374.54 299.227 2397.4 277.696 2419.25 254.63" stroke="#225E7A" stroke-width="0.552088" stroke-miterlimit="10"/>
<path d="M382.288 55.4419C381.41 146.167 442.714 213.814 538.182 320.4C545.557 328.632 552.663 337.084 560.132 345.178C585.148 372.103 612.581 397.836 645.281 412.29C740.665 454.762 839.876 409.458 930.269 376.94C1003.74 350.511 1078.73 316.944 1161.05 283.609C1188.22 272.606 1215.4 261.476 1242.89 250.925C1302.49 228.047 1369.9 207.448 1427.82 226.048C1486.46 244.891 1517.4 294.148 1549.86 336.781C1587.75 386.436 1633.83 434.511 1694.03 470.557C1715.01 483.101 1737.89 494.043 1761.98 502.716C1806.91 518.97 1856.24 527.566 1905.24 524.082C1964.04 519.892 2018.7 499.205 2069.09 477.839C2171.46 434.738 2261.45 385.983 2341.58 322.592C2365.5 303.678 2388.51 283.51 2410.57 261.746" stroke="#225E7A" stroke-width="0.552088" stroke-miterlimit="10"/>
<path d="M378.777 61.4863C377.938 148.087 441.345 209.109 539.225 315.988C546.612 324.054 553.695 332.369 561.143 340.324C586.119 366.824 613.299 392.193 645.474 406.751C739.423 449.616 836.735 408.684 927.134 377.977C999.65 353.342 1074.06 321.073 1156.33 288.533C1183.29 277.866 1210.25 267.007 1237.5 256.699C1296.59 234.345 1363.11 214.067 1420.56 231.171C1478.73 248.501 1510.44 294.827 1543.62 334.881C1582.35 381.527 1628.92 426.732 1689 460.646C1709.95 472.45 1732.7 482.746 1756.62 490.901C1801.22 506.194 1850.05 514.326 1898.56 511.102C1956.77 507.226 2010.99 487.864 2061.04 468.16C2162.77 428.438 2252.14 384.469 2332.5 325.683C2356.49 308.143 2379.63 289.339 2401.93 268.878" stroke="#225E7A" stroke-width="0.552088" stroke-miterlimit="10"/>
<path d="M375.271 67.5378C374.471 150.014 439.954 204.434 540.268 311.578C547.666 319.478 554.733 327.649 562.147 335.466C587.091 361.547 614.016 386.546 645.656 401.215C738.17 444.471 833.571 407.889 923.986 379.01C995.537 356.153 1069.37 325.198 1151.58 293.447C1178.34 283.112 1205.08 272.528 1232.1 262.464C1290.67 240.64 1356.3 220.671 1413.28 236.284C1470.97 252.096 1503.46 295.501 1537.36 332.965C1576.94 376.608 1623.98 418.937 1683.94 450.72C1704.85 461.779 1727.49 471.429 1751.24 479.065C1795.5 493.397 1843.83 501.065 1891.85 498.106C1949.46 494.545 2003.25 476.509 2052.96 458.461C2154.06 422.111 2242.8 382.93 2323.39 328.753C2347.44 312.588 2370.73 295.147 2393.24 275.99" stroke="#225E7A" stroke-width="0.552088" stroke-miterlimit="10"/>
<path d="M371.765 73.5827C371.009 151.935 438.535 199.773 541.312 307.16C548.715 314.895 555.754 322.944 563.158 330.602C588.013 356.307 614.734 380.886 645.844 395.666C736.922 439.319 830.402 407.072 920.839 380.03C991.418 358.93 1064.68 329.299 1146.85 298.354C1173.4 288.351 1199.91 278.049 1226.7 268.227C1284.77 246.927 1349.5 227.279 1406.01 241.396C1463.23 255.695 1496.5 296.168 1531.11 331.055C1571.53 371.688 1619.06 411.146 1678.9 440.793C1699.77 451.106 1722.29 460.111 1745.88 467.233C1789.8 480.599 1837.64 487.804 1885.15 485.109C1942.16 481.869 1995.52 465.151 2044.9 448.765C2145.35 415.795 2233.47 381.394 2314.28 331.822C2338.4 317.032 2361.83 300.955 2384.58 283.095" stroke="#225E7A" stroke-width="0.552088" stroke-miterlimit="10"/>
<path d="M368.254 79.634C367.536 153.862 437.083 195.142 542.355 302.749C549.764 310.324 556.787 318.225 564.163 325.744C588.979 351.03 615.452 375.239 646.032 390.129C735.68 434.174 827.216 406.238 917.698 381.069C987.289 361.707 1060 333.418 1142.11 303.274C1168.46 293.601 1194.75 283.575 1221.3 273.997C1278.85 253.227 1342.7 233.893 1398.74 246.514C1455.48 259.3 1489.53 296.842 1524.86 329.15C1566.12 366.775 1614.14 403.362 1673.86 430.878C1694.7 440.451 1717.09 448.804 1740.51 455.413C1784.11 467.818 1831.44 474.559 1878.46 472.13C1934.87 469.204 1987.81 453.812 2036.84 439.088C2136.65 409.49 2224.15 379.876 2305.2 334.914C2329.39 321.498 2352.96 306.785 2375.92 290.228" stroke="#225E7A" stroke-width="0.552088" stroke-miterlimit="10"/>
<path d="M364.748 85.6851C364.069 155.789 435.609 190.532 543.399 298.339C550.813 305.753 557.825 313.51 565.173 320.886C589.951 345.752 616.169 369.591 646.22 384.586C734.432 429.023 824.02 405.383 914.557 382.096C983.154 364.451 1055.31 337.52 1137.38 308.188C1163.52 298.847 1189.6 289.097 1215.91 279.761C1272.95 259.516 1335.89 240.502 1391.48 251.626C1447.74 262.895 1482.57 297.51 1518.62 327.24C1560.72 361.856 1609.22 395.572 1668.83 420.952C1689.62 429.78 1711.9 437.487 1735.15 443.582C1778.41 455.027 1825.25 461.304 1871.78 459.134C1927.58 456.523 1980.09 442.456 2028.79 429.388C2127.96 403.169 2214.84 378.336 2296.11 337.979C2320.37 325.937 2344.08 312.588 2367.27 297.334" stroke="#225E7A" stroke-width="0.552088" stroke-miterlimit="10"/>
<path d="M361.237 91.7307C360.597 157.711 434.102 185.945 544.437 293.928C551.851 301.182 558.852 308.795 566.172 316.028C590.911 340.474 616.882 363.944 646.402 379.049C733.179 423.878 820.801 404.506 911.41 383.134C979.002 367.19 1050.61 341.628 1132.64 313.107C1158.58 304.092 1184.43 294.623 1210.51 285.53C1267.03 265.815 1329.09 247.116 1384.21 256.744C1440 266.5 1475.6 298.19 1512.37 325.336C1555.31 356.943 1604.3 387.788 1663.78 411.037C1684.54 419.119 1706.69 426.18 1729.78 431.757C1772.71 442.241 1819.05 448.049 1865.08 446.144C1920.28 443.853 1972.36 431.105 2020.72 419.699C2119.25 396.854 2205.5 376.807 2287 341.059C2311.33 330.399 2335.18 318.413 2358.59 304.456" stroke="#225E7A" stroke-width="0.552088" stroke-miterlimit="10"/>
<path d="M357.732 97.7813C357.135 159.637 432.573 181.39 545.486 289.516C552.9 296.616 559.895 304.08 567.188 311.169C591.894 335.19 617.638 358.235 646.595 373.505C732.031 418.556 817.588 403.594 908.274 384.161C974.856 369.889 1045.93 345.719 1127.91 318.02C1153.64 309.331 1179.28 300.144 1205.12 291.294C1261.13 272.103 1322.29 253.724 1376.94 261.856C1432.26 270.099 1468.64 298.858 1506.12 323.425C1549.91 352.024 1599.37 379.998 1658.74 401.11C1679.46 408.453 1701.5 414.862 1724.42 419.925C1767 429.443 1812.85 434.793 1858.39 433.153C1912.99 431.177 1964.64 419.754 2012.66 410.009C2110.55 390.543 2196.18 375.278 2277.91 344.134C2302.3 334.848 2326.3 324.226 2349.94 311.567" stroke="#225E7A" stroke-width="0.552088" stroke-miterlimit="10"/>
<path d="M354.22 103.826C353.662 161.558 431.015 176.856 546.523 285.099C553.938 292.044 560.928 299.354 568.188 306.305C592.855 329.907 618.345 352.581 646.772 367.956C730.772 413.404 814.353 402.655 905.116 385.182C970.677 372.561 1041.22 349.798 1123.16 322.923C1148.68 314.553 1174.1 305.653 1199.71 297.046C1255.21 278.386 1315.48 260.321 1369.67 266.952C1424.51 273.676 1461.66 299.509 1499.86 321.498C1544.5 347.088 1594.44 372.191 1653.69 391.172C1674.37 397.769 1696.3 403.533 1719.04 408.082C1761.29 416.64 1806.64 421.52 1851.69 420.145C1905.69 418.489 1956.91 408.38 2004.59 400.298C2101.85 384.204 2186.85 373.726 2268.8 347.192C2293.27 339.281 2317.4 330.022 2341.26 318.666" stroke="#225E7A" stroke-width="0.552088" stroke-miterlimit="10"/>
<path d="M350.714 109.877C350.195 163.49 429.431 172.357 547.572 280.688C554.981 287.478 561.965 294.639 569.203 301.446C593.838 324.623 619.073 346.933 646.97 362.419C729.541 408.259 811.129 401.689 901.986 386.219C966.519 375.227 1036.54 353.889 1118.44 327.847C1143.75 319.798 1168.95 311.19 1194.32 302.821C1249.3 284.685 1308.69 266.935 1362.41 272.075C1416.78 277.287 1454.7 300.187 1493.63 319.599C1539.1 342.185 1589.53 364.417 1648.66 381.262C1669.31 387.114 1691.11 392.231 1713.69 396.267C1755.61 403.864 1800.46 408.281 1845.01 407.171C1898.41 405.829 1949.2 397.046 1996.55 390.625C2093.16 377.91 2177.54 372.218 2259.71 350.284C2284.25 343.747 2308.52 335.852 2332.61 325.799" stroke="#225E7A" stroke-width="0.552088" stroke-miterlimit="10"/>
<path d="M347.203 115.928C346.723 165.418 427.819 167.896 548.611 276.282C556.014 282.924 562.998 289.925 570.203 296.594C594.798 319.351 619.78 341.291 647.148 356.882C728.282 403.119 807.877 400.696 898.834 387.252C962.34 377.867 1031.83 357.964 1113.7 332.761C1138.79 325.032 1163.79 316.712 1188.92 308.591C1243.39 290.985 1301.88 273.549 1355.13 277.193C1409.02 280.892 1447.73 300.867 1487.37 317.695C1533.69 337.272 1584.6 356.633 1643.61 371.341C1664.22 376.453 1685.9 380.92 1708.31 384.437C1749.89 391.073 1794.25 395.026 1838.3 394.175C1891.1 393.149 1941.46 385.69 1988.47 380.931C2084.44 371.589 2168.2 370.684 2250.61 353.359C2275.21 348.197 2299.62 341.666 2323.94 332.916" stroke="#225E7A" stroke-width="0.552088" stroke-miterlimit="10"/>
<path d="M343.697 121.974C343.261 167.339 426.179 163.463 549.654 271.866C557.052 278.358 564.036 285.204 571.213 291.73C595.776 314.062 620.504 335.637 647.335 351.339C727.04 397.974 804.631 399.658 895.692 388.285C958.166 380.484 1027.13 362.038 1108.96 337.68C1133.85 330.271 1158.62 322.238 1183.52 314.36C1237.48 297.278 1295.08 280.163 1347.86 282.311C1401.28 284.492 1440.76 301.54 1481.12 315.79C1528.28 332.358 1579.68 348.849 1638.57 361.425C1659.14 365.792 1680.7 369.613 1702.94 372.616C1744.19 378.286 1788.05 381.775 1831.61 381.196C1883.81 380.489 1933.74 374.35 1980.41 371.247C2075.74 365.285 2158.87 369.16 2241.51 356.446C2266.18 352.658 2290.73 347.491 2315.27 340.043" stroke="#225E7A" stroke-width="0.552088" stroke-miterlimit="10"/>
<path d="M340.191 128.025C339.794 169.266 424.517 159.069 550.703 267.455C558.09 273.804 565.073 280.49 572.223 286.872C596.752 308.779 621.188 330.04 647.528 345.796C725.704 392.983 801.39 398.581 892.556 389.312C953.998 383.068 1022.43 366.102 1104.23 342.589C1128.91 335.494 1153.47 327.754 1178.13 320.119C1231.57 303.567 1288.28 286.767 1340.59 287.418C1393.54 288.086 1433.8 302.203 1474.87 313.875C1522.87 327.434 1574.76 341.054 1633.53 351.494C1654.06 355.116 1675.51 358.29 1697.58 360.78C1738.49 365.489 1781.85 368.515 1824.92 368.195C1876.52 367.803 1926.02 362.988 1972.35 361.547C2067.04 358.958 2149.55 367.62 2232.41 359.51C2257.15 357.098 2281.85 353.299 2306.61 347.143" stroke="#225E7A" stroke-width="0.552088" stroke-miterlimit="10"/>
<path d="M336.68 134.07C336.321 171.187 422.823 154.707 551.741 263.038C559.122 269.238 566.106 275.763 573.228 282.007C597.724 303.489 621.906 324.386 647.71 340.253C724.451 387.837 798.138 397.466 889.404 390.338C949.813 385.624 1017.71 370.154 1099.49 347.502C1123.96 340.722 1148.3 333.274 1172.73 325.882C1225.66 309.855 1281.48 293.375 1333.32 292.53C1385.79 291.686 1426.83 302.871 1468.62 311.964C1517.47 322.514 1569.83 333.263 1628.49 341.572C1648.98 344.454 1670.31 346.983 1692.21 348.954C1732.79 352.702 1775.65 355.264 1818.22 355.203C1869.22 355.126 1918.29 351.637 1964.29 351.858C2058.34 352.647 2140.22 366.091 2223.32 362.59C2248.13 361.552 2272.96 359.118 2297.95 354.265" stroke="#225E7A" stroke-width="0.552088" stroke-miterlimit="10"/>
<path d="M333.174 140.121C332.854 173.113 421.111 150.395 552.784 258.632C560.155 264.688 567.144 271.054 574.233 277.155C598.696 298.211 622.618 318.743 647.898 334.715C723.203 382.692 794.897 396.312 886.262 391.376C945.645 388.168 1013.01 374.217 1094.76 352.421C1119.02 345.956 1143.14 338.806 1167.34 331.651C1219.75 316.154 1274.68 299.989 1326.06 297.648C1378.05 295.285 1419.87 303.55 1462.38 310.059C1512.07 317.6 1564.91 325.479 1623.45 331.651C1643.9 333.788 1665.11 335.67 1686.85 337.122C1727.09 339.91 1769.45 342.003 1811.53 342.213C1861.93 342.456 1910.57 340.286 1956.23 342.168C2049.63 346.331 2130.9 364.561 2214.22 365.665C2239.09 366.002 2264.07 364.931 2289.28 361.381" stroke="#225E7A" stroke-width="0.552088" stroke-miterlimit="10"/>
<path d="M329.663 146.172C329.382 175.04 419.361 146.122 553.828 254.221C561.187 260.139 568.193 266.323 575.243 272.296C599.712 292.884 623.341 313.095 648.086 329.172C721.961 377.541 791.656 395.108 883.121 392.403C941.477 390.68 1008.31 378.253 1090.02 357.334C1114.06 351.178 1137.98 344.327 1161.94 337.415C1213.84 322.442 1267.88 306.597 1318.79 302.76C1370.31 298.885 1412.9 304.218 1456.13 308.149C1506.66 312.687 1559.99 317.689 1618.41 321.73C1638.83 323.121 1659.91 324.358 1681.48 325.297C1721.39 327.119 1763.25 328.753 1804.84 329.222C1854.64 329.78 1902.85 328.935 1948.17 332.474C2040.93 340.015 2121.57 363.026 2205.12 368.74C2230.07 370.452 2255.18 370.745 2280.62 368.498" stroke="#225E7A" stroke-width="0.552088" stroke-miterlimit="10"/>
<path d="M326.157 152.217C325.92 176.962 417.594 141.888 554.871 249.804C562.219 255.579 569.225 261.597 576.248 267.438C600.678 287.6 624.053 307.442 648.268 323.635C720.707 372.396 788.427 393.861 879.974 393.441C937.314 393.176 1003.6 382.3 1085.28 362.254C1109.12 356.407 1132.82 349.854 1156.54 343.19C1207.93 328.747 1261.07 313.212 1311.51 307.884C1362.56 302.496 1405.93 304.897 1449.88 306.25C1501.25 307.779 1555.06 309.91 1613.37 311.82C1633.75 312.472 1654.71 313.057 1676.11 313.482C1715.69 314.344 1757.06 315.508 1798.15 316.248C1847.34 317.121 1895.13 317.601 1940.11 322.802C2032.23 333.716 2112.25 361.514 2196.03 371.832C2221.04 374.919 2246.3 376.575 2271.96 375.625" stroke="#225E7A" stroke-width="0.552088" stroke-miterlimit="10"/>
<path d="M322.646 158.269C322.447 178.889 415.8 137.703 555.909 245.394C563.246 251.03 570.258 256.883 577.253 262.58C601.65 282.323 624.771 301.795 648.456 318.093C719.46 367.245 785.213 392.564 876.833 394.469C933.168 395.639 998.894 386.325 1080.55 367.168C1104.17 361.625 1127.66 355.375 1151.14 348.954C1202.02 335.036 1254.27 319.821 1304.25 312.991C1354.82 306.09 1398.97 305.56 1443.63 304.335C1495.84 302.855 1550.14 302.115 1608.33 301.889C1628.67 301.795 1649.52 301.734 1670.75 301.646C1709.99 301.547 1750.86 302.248 1791.45 303.247C1840.04 304.439 1887.4 306.239 1932.04 313.102C2023.53 327.395 2102.92 359.98 2186.92 374.903C2212 379.363 2237.41 382.383 2263.29 382.737" stroke="#225E7A" stroke-width="0.552088" stroke-miterlimit="10"/>
<path d="M319.14 164.313C318.98 180.81 413.978 133.562 556.958 240.976C564.278 246.475 571.301 252.162 578.263 257.716C602.621 277.033 625.489 296.141 648.643 312.549C718.212 362.099 782.017 391.216 873.686 395.495C929.027 398.079 994.179 390.344 1075.81 372.075C1099.22 366.836 1122.5 360.89 1145.74 354.712C1196.11 341.324 1247.47 326.423 1296.98 318.098C1347.07 309.678 1392 306.228 1437.38 302.418C1490.43 297.93 1545.22 294.319 1603.29 291.962C1623.59 291.123 1644.32 290.416 1665.39 289.814C1704.29 288.754 1744.67 288.992 1784.76 290.256C1832.76 291.763 1879.68 294.888 1923.98 303.407C2014.83 321.073 2093.6 358.444 2177.83 377.977C2202.98 383.813 2228.52 388.196 2254.64 389.853" stroke="#225E7A" stroke-width="0.552088" stroke-miterlimit="10"/>
<path d="M315.629 170.364C315.508 182.736 412.135 129.477 557.996 236.571C565.306 241.937 572.328 247.447 579.268 252.863C603.593 271.761 626.207 290.499 648.826 307.012C716.964 356.954 778.837 389.825 870.539 396.533C924.898 400.508 989.464 394.363 1071.07 377C1094.27 372.064 1117.33 366.427 1140.34 360.487C1190.19 347.623 1240.66 333.043 1289.7 323.221C1339.32 313.289 1385.03 306.907 1431.12 300.519C1485.02 293.022 1540.29 286.54 1598.24 282.046C1618.5 280.467 1639.11 279.109 1660.01 277.988C1698.58 275.962 1738.46 275.736 1778.06 277.265C1825.46 279.092 1871.95 283.537 1915.92 293.717C2006.12 314.757 2084.27 356.915 2168.73 381.052C2193.95 388.262 2219.63 394.015 2245.97 396.969" stroke="#225E7A" stroke-width="0.552088" stroke-miterlimit="10"/>
<path d="M312.123 176.415C312.046 184.664 410.268 125.441 559.039 232.16C566.332 237.394 573.366 242.732 580.273 248.005C604.559 266.478 626.919 284.846 649.013 301.475C715.717 351.808 775.684 388.384 867.397 397.565C920.79 402.91 984.76 398.366 1066.34 381.914C1089.32 377.276 1112.17 371.949 1134.94 366.251C1184.28 353.917 1233.86 339.651 1282.43 328.334C1331.58 316.889 1378.06 307.575 1424.87 298.609C1479.61 288.103 1535.36 278.751 1593.2 272.125C1613.42 269.801 1633.91 267.797 1654.64 266.163C1692.88 263.176 1732.26 262.486 1771.37 264.275C1818.16 266.417 1864.23 272.186 1907.85 284.029C1997.42 308.447 2074.94 355.386 2159.63 384.133C2184.92 392.718 2210.74 399.835 2237.3 404.086" stroke="#225E7A" stroke-width="0.552088" stroke-miterlimit="10"/>
<path d="M308.618 182.461C308.579 186.585 408.374 121.455 560.088 227.743C567.37 232.845 574.404 238.007 581.289 243.141C605.536 261.194 627.648 279.192 649.207 295.926C714.475 346.652 772.571 386.883 864.262 398.593C916.71 405.289 980.04 402.258 1061.61 386.828C1084.38 382.461 1107.01 377.47 1129.56 372.015C1178.38 360.206 1227.07 346.26 1275.17 333.446C1323.84 320.483 1371.1 308.243 1418.64 296.699C1474.22 283.184 1530.45 270.961 1588.17 262.199C1608.35 259.13 1628.73 256.479 1649.29 254.332C1687.19 250.384 1726.07 249.231 1764.68 251.284C1810.88 253.741 1856.51 260.83 1899.8 274.334C1988.73 302.126 2065.62 353.851 2150.54 387.203C2175.9 397.163 2201.86 405.643 2228.64 411.197" stroke="#225E7A" stroke-width="0.552088" stroke-miterlimit="10"/>
<path d="M305.106 188.512C305.106 188.512 406.453 117.524 561.126 223.332C715.799 329.14 769.043 443.301 1056.87 391.741C1255.76 356.109 1443.4 268.714 1643.91 242.506C1726.41 231.724 1812.87 236.803 1891.73 264.645C1980.02 295.816 2056.29 352.322 2141.44 390.284C2166.86 401.618 2192.96 411.462 2219.98 418.319" stroke="#225E7A" stroke-width="0.552088" stroke-miterlimit="10"/>
</g>
</svg>
